<svg width="435" height="153" viewBox="0 0 435 153" fill="none" xmlns="http://www.w3.org/2000/svg">
<path d="M4.81553 23.824C6.4207 23.9004 8.52272 23.9769 11.1216 24.0533C13.7204 24.1297 16.2811 24.168 18.8035 24.168C22.396 24.168 25.8357 24.1297 29.1225 24.0533C32.4093 23.9769 34.7406 23.9386 36.1164 23.9386C44.1423 23.9386 50.1808 25.6203 54.232 28.9835C58.2832 32.3467 60.3087 36.6654 60.3087 41.9395C60.3087 44.6148 59.7355 47.2519 58.5889 49.8508C57.5188 52.3732 55.6843 54.7045 53.0854 56.8447C50.563 58.9085 47.1616 60.5901 42.8811 61.8896V62.1189C48.9196 62.8833 53.6205 64.3356 56.9837 66.4758C60.4234 68.5396 62.8312 70.9856 64.207 73.8137C65.5829 76.6419 66.2708 79.6229 66.2708 82.7569C66.2708 87.1138 65.1625 90.9738 62.9458 94.337C60.8056 97.6238 57.6717 100.223 53.5441 102.134C49.4165 104.045 44.4863 105 38.7535 105C37.0719 105 34.5495 104.962 31.1863 104.885C27.823 104.732 23.7719 104.656 19.0328 104.656C16.3575 104.656 13.7204 104.694 11.1216 104.771C8.52272 104.771 6.4207 104.847 4.81553 105V102.707C7.41438 102.554 9.36352 102.248 10.663 101.79C12.0388 101.331 12.9561 100.414 13.4147 99.0379C13.8733 97.6621 14.1026 95.5983 14.1026 92.8465V35.9775C14.1026 33.1493 13.8733 31.0855 13.4147 29.7861C12.9561 28.4102 12.0388 27.493 10.663 27.0343C9.36352 26.4993 7.41438 26.1935 4.81553 26.1171V23.824ZM33.2501 26.1171C29.734 26.1171 27.4409 26.7668 26.3707 28.0662C25.3006 29.3657 24.7656 32.0027 24.7656 35.9775V92.8465C24.7656 95.5218 24.9949 97.5474 25.4535 98.9233C25.9121 100.299 26.7529 101.216 27.9759 101.675C29.1989 102.134 30.9952 102.363 33.3647 102.363C40.8555 102.363 46.2826 100.643 49.6458 97.2034C53.0854 93.6873 54.8053 88.7189 54.8053 82.2982C54.8053 76.4126 53.2001 71.8646 49.9897 68.6542C46.8558 65.4439 41.6581 63.8387 34.3966 63.8387H22.5871C22.5871 63.8387 22.5871 63.533 22.5871 62.9215C22.5871 62.2335 22.5871 61.8896 22.5871 61.8896H32.4475C36.9573 61.8896 40.4351 61.0488 42.8811 59.3672C45.3271 57.6091 47.0087 55.316 47.926 52.4878C48.8432 49.5832 49.3018 46.4875 49.3018 43.2007C49.3018 37.5444 48.0406 33.3022 45.5182 30.474C43.0722 27.5694 38.9828 26.1171 33.2501 26.1171ZM131.534 23.824C131.228 26.4993 130.999 29.0981 130.846 31.6206C130.77 34.143 130.731 36.0539 130.731 37.3533C130.731 38.7292 130.77 40.0668 130.846 41.3663C130.922 42.5893 130.999 43.6212 131.075 44.462H128.438C127.98 39.9522 127.33 36.3979 126.489 33.799C125.648 31.1237 124.196 29.251 122.132 28.1809C120.145 27.0343 117.126 26.4611 113.074 26.4611H103.558C100.959 26.4611 98.9718 26.6904 97.5959 27.149C96.2965 27.5312 95.4175 28.4102 94.9588 29.7861C94.5002 31.0855 94.2709 33.1493 94.2709 35.9775V92.8465C94.2709 95.5983 94.5002 97.6621 94.9588 99.0379C95.4175 100.414 96.2965 101.331 97.5959 101.79C98.9718 102.172 100.959 102.363 103.558 102.363H111.928C116.743 102.363 120.374 101.713 122.82 100.414C125.343 99.1144 127.139 97.0123 128.209 94.1077C129.355 91.1267 130.196 87.1138 130.731 82.0689H133.368C133.139 84.1327 133.024 86.8844 133.024 90.3241C133.024 91.7764 133.063 93.8784 133.139 96.6302C133.292 99.3054 133.521 102.095 133.827 105C129.929 104.847 125.534 104.771 120.642 104.771C115.75 104.694 111.393 104.656 107.571 104.656C105.889 104.656 103.711 104.656 101.036 104.656C98.4367 104.656 95.6086 104.694 92.5511 104.771C89.4936 104.771 86.3979 104.809 83.264 104.885C80.1301 104.885 77.149 104.924 74.3209 105V102.707C76.9197 102.554 78.8689 102.248 80.1683 101.79C81.5442 101.331 82.4614 100.414 82.92 99.0379C83.3786 97.6621 83.608 95.5983 83.608 92.8465V35.9775C83.608 33.1493 83.3786 31.0855 82.92 29.7861C82.4614 28.4102 81.5442 27.493 80.1683 27.0343C78.8689 26.4993 76.9197 26.1935 74.3209 26.1171V23.824C77.149 23.9004 80.1301 23.9769 83.264 24.0533C86.3979 24.0533 89.4936 24.0915 92.5511 24.168C95.6086 24.168 98.4367 24.168 101.036 24.168C103.711 24.168 105.889 24.168 107.571 24.168C111.087 24.168 115.062 24.168 119.495 24.168C124.005 24.0915 128.018 23.9769 131.534 23.824ZM111.813 63.0361C111.813 63.0361 111.813 63.4183 111.813 64.1827C111.813 64.9471 111.813 65.3292 111.813 65.3292H90.8312C90.8312 65.3292 90.8312 64.9471 90.8312 64.1827C90.8312 63.4183 90.8312 63.0361 90.8312 63.0361H111.813ZM115.138 47.9016C114.832 52.2585 114.68 55.5835 114.68 57.8766C114.756 60.1697 114.794 62.2718 114.794 64.1827C114.794 66.0936 114.832 68.1956 114.909 70.4887C114.985 72.7818 115.176 76.1068 115.482 80.4637H112.845C112.539 78.0178 112.157 75.6482 111.699 73.3551C111.316 70.9856 110.399 69.0746 108.947 67.6223C107.571 66.0936 105.201 65.3292 101.838 65.3292V63.0361C104.361 63.0361 106.272 62.5393 107.571 61.5456C108.947 60.4755 109.94 59.1378 110.552 57.5327C111.163 55.9275 111.584 54.2841 111.813 52.6025C112.042 50.8444 112.272 49.2775 112.501 47.9016H115.138ZM172.28 23.824V26.1171C169.681 26.1935 167.693 26.4993 166.317 27.0343C165.018 27.493 164.139 28.4102 163.68 29.7861C163.222 31.0855 162.992 33.1493 162.992 35.9775V92.8465C162.992 95.5983 163.222 97.6621 163.68 99.0379C164.139 100.414 165.018 101.331 166.317 101.79C167.693 102.248 169.681 102.554 172.28 102.707V105C170.522 104.847 168.305 104.771 165.63 104.771C163.031 104.694 160.394 104.656 157.718 104.656C154.737 104.656 151.947 104.694 149.348 104.771C146.75 104.771 144.648 104.847 143.042 105V102.707C145.641 102.554 147.59 102.248 148.89 101.79C150.266 101.331 151.183 100.414 151.642 99.0379C152.1 97.6621 152.33 95.5983 152.33 92.8465V35.9775C152.33 33.1493 152.1 31.0855 151.642 29.7861C151.183 28.4102 150.266 27.493 148.89 27.0343C147.59 26.4993 145.641 26.1935 143.042 26.1171V23.824C144.648 23.9004 146.75 23.9769 149.348 24.0533C151.947 24.1297 154.737 24.168 157.718 24.168C160.394 24.168 163.031 24.1297 165.63 24.0533C168.305 23.9769 170.522 23.9004 172.28 23.824ZM171.018 61.8896C175.07 61.8896 178.853 62.31 182.369 63.1508C185.962 63.9916 189.019 65.5968 191.542 67.9663C194.064 70.3359 195.86 73.852 196.93 78.5146L200.255 92.9612C201.096 96.4773 201.861 98.9615 202.549 100.414C203.237 101.79 204.421 102.439 206.103 102.363C207.402 102.286 208.472 101.866 209.313 101.102C210.23 100.337 211.186 99.3054 212.18 98.006L213.899 99.2672C212.447 101.407 210.842 103.166 209.084 104.541C207.326 105.917 204.842 106.605 201.631 106.605C198.956 106.605 196.51 105.841 194.293 104.312C192.153 102.707 190.51 99.3437 189.363 94.2224L186.153 80.0051C185.465 76.7948 184.662 74.0048 183.745 71.6353C182.828 69.2657 181.376 67.4313 179.388 66.1318C177.401 64.756 174.458 64.068 170.56 64.068H160.814V61.8896H171.018ZM162.992 64.068V61.8896C166.203 61.8131 168.878 61.1634 171.018 59.9404C173.235 58.641 175.07 57.074 176.522 55.2396L187.529 41.2516C190.051 38.0413 191.771 35.3277 192.688 33.1111C193.605 30.8944 193.567 29.2128 192.574 28.0662C191.58 26.8432 189.478 26.1935 186.268 26.1171V23.824C187.72 23.9004 189.21 23.9769 190.739 24.0533C192.268 24.0533 193.758 24.0915 195.211 24.168C196.739 24.168 198.153 24.168 199.453 24.168C201.44 24.168 203.275 24.1297 204.956 24.0533C206.638 23.9769 208.052 23.9004 209.199 23.824V26.1171C206.829 26.4228 204.536 27.2254 202.319 28.5249C200.103 29.7478 197.886 31.7352 195.669 34.4869L172.394 64.068H162.992ZM282.662 23.824C282.356 26.7286 282.127 29.5568 281.974 32.3085C281.898 34.9838 281.86 37.0476 281.86 38.4999C281.86 40.3344 281.898 42.0542 281.974 43.6594C282.051 45.2645 282.127 46.6786 282.204 47.9016H279.567C279.031 42.551 278.305 38.347 277.388 35.2895C276.471 32.1556 274.866 29.9007 272.573 28.5249C270.279 27.149 266.725 26.4611 261.91 26.4611H255.718V91.7C255.718 94.7575 255.986 97.0506 256.521 98.5793C257.132 100.108 258.279 101.14 259.96 101.675C261.642 102.21 264.088 102.554 267.298 102.707V105C265.311 104.847 262.789 104.771 259.731 104.771C256.674 104.694 253.578 104.656 250.444 104.656C247.004 104.656 243.756 104.694 240.698 104.771C237.717 104.771 235.31 104.847 233.475 105V102.707C236.685 102.554 239.131 102.21 240.813 101.675C242.495 101.14 243.603 100.108 244.138 98.5793C244.75 97.0506 245.055 94.7575 245.055 91.7V26.4611H238.864C234.125 26.4611 230.57 27.149 228.201 28.5249C225.908 29.9007 224.303 32.1556 223.385 35.2895C222.468 38.347 221.742 42.551 221.207 47.9016H218.57C218.723 46.6786 218.799 45.2645 218.799 43.6594C218.876 42.0542 218.914 40.3344 218.914 38.4999C218.914 37.0476 218.837 34.9838 218.685 32.3085C218.608 29.5568 218.417 26.7286 218.111 23.824C221.322 23.9004 224.799 23.9769 228.545 24.0533C232.367 24.1297 236.189 24.168 240.01 24.168C243.832 24.168 247.31 24.168 250.444 24.168C253.578 24.168 257.018 24.168 260.763 24.168C264.585 24.168 268.407 24.1297 272.229 24.0533C276.05 23.9769 279.528 23.9004 282.662 23.824ZM327.389 22.2188C334.65 22.2188 340.994 23.8622 346.421 27.149C351.925 30.4358 356.167 35.1749 359.148 41.3663C362.206 47.4812 363.734 54.9338 363.734 63.7241C363.734 72.285 362.167 79.7758 359.033 86.1965C355.976 92.6172 351.696 97.6238 346.192 101.216C340.689 104.809 334.383 106.605 327.274 106.605C320.012 106.605 313.63 104.962 308.126 101.675C302.699 98.3882 298.457 93.6491 295.4 87.4577C292.419 81.2663 290.928 73.8137 290.928 65.0999C290.928 56.539 292.495 49.0482 295.629 42.6275C298.763 36.2068 303.043 31.2002 308.47 27.6076C313.974 24.0151 320.28 22.2188 327.389 22.2188ZM326.93 24.2826C321.962 24.2826 317.643 26.0024 313.974 29.4421C310.305 32.8818 307.439 37.6209 305.375 43.6594C303.387 49.6979 302.394 56.6919 302.394 64.6413C302.394 72.7436 303.502 79.814 305.719 85.8526C308.012 91.8146 311.069 96.4391 314.891 99.7259C318.789 102.936 323.07 104.541 327.733 104.541C332.701 104.541 337.02 102.822 340.689 99.3819C344.358 95.9422 347.186 91.2031 349.173 85.1646C351.237 79.0497 352.269 72.0557 352.269 64.1827C352.269 56.0039 351.122 48.9335 348.829 42.9714C346.612 37.0094 343.593 32.4231 339.771 29.2128C335.95 25.926 331.669 24.2826 326.93 24.2826ZM372.608 23.824C374.214 23.9004 376.316 23.9769 378.915 24.0533C381.513 24.1297 384.074 24.168 386.596 24.168C390.189 24.168 393.629 24.1297 396.915 24.0533C400.202 23.9769 402.534 23.9386 403.909 23.9386C413.158 23.9386 420.076 26.0407 424.662 30.2447C429.248 34.4487 431.541 39.8757 431.541 46.5258C431.541 49.2775 431.083 52.1821 430.165 55.2396C429.248 58.2206 427.643 61.0106 425.35 63.6094C423.133 66.1318 420.076 68.1956 416.178 69.8008C412.279 71.406 407.349 72.2086 401.387 72.2086H390.38V69.9155H400.24C405.667 69.9155 409.795 68.8836 412.623 66.8198C415.528 64.756 417.477 62.0424 418.471 58.6792C419.541 55.316 420.076 51.6852 420.076 47.787C420.076 40.5255 418.624 35.0984 415.719 31.5059C412.891 27.9134 407.999 26.1171 401.043 26.1171C397.527 26.1171 395.234 26.7668 394.164 28.0662C393.094 29.3657 392.559 32.0027 392.559 35.9775V92.8465C392.559 95.5983 392.826 97.6621 393.361 99.0379C393.973 100.414 395.119 101.331 396.801 101.79C398.482 102.248 400.928 102.554 404.139 102.707V105C402.151 104.847 399.629 104.771 396.571 104.771C393.514 104.694 390.418 104.656 387.284 104.656C384.303 104.656 381.513 104.694 378.915 104.771C376.316 104.771 374.214 104.847 372.608 105V102.707C375.207 102.554 377.156 102.248 378.456 101.79C379.832 101.331 380.749 100.414 381.208 99.0379C381.666 97.6621 381.896 95.5983 381.896 92.8465V35.9775C381.896 33.1493 381.666 31.0855 381.208 29.7861C380.749 28.4102 379.832 27.493 378.456 27.0343C377.156 26.4993 375.207 26.1935 372.608 26.1171V23.824Z" fill="#FCFAF7"/>
<path d="M14.6871 136.995V139.149H6.42315V136.995H14.6871ZM1.64495 141.578H4.15155C4.36696 142.988 4.84348 144.071 5.5811 144.828C6.31871 145.586 7.50021 145.964 9.12558 145.964C10.2744 145.964 11.234 145.641 12.0043 144.995C12.781 144.349 13.362 143.494 13.7471 142.43C14.1388 141.366 14.3346 140.207 14.3346 138.954V136.721C14.3346 135.337 14.1159 134.12 13.6786 133.069C13.2478 132.012 12.6244 131.189 11.8084 130.602C10.999 130.008 10.0264 129.711 8.89059 129.711C7.89839 129.711 7.07591 129.887 6.42315 130.239C5.7704 130.592 5.26124 131.098 4.8957 131.757C4.53015 132.416 4.2821 133.209 4.15155 134.136H1.64495C1.77551 132.857 2.12473 131.721 2.69263 130.729C3.26706 129.73 4.06669 128.947 5.09153 128.379C6.12289 127.805 7.38924 127.517 8.89059 127.517C10.5225 127.517 11.9324 127.899 13.1205 128.663C14.3085 129.42 15.2256 130.487 15.8719 131.865C16.5181 133.235 16.8412 134.841 16.8412 136.682V138.993C16.8412 140.834 16.5213 142.439 15.8816 143.81C15.2419 145.174 14.3444 146.235 13.189 146.992C12.0336 147.743 10.6791 148.118 9.12558 148.118C7.53285 148.118 6.20774 147.831 5.15027 147.257C4.09933 146.676 3.28664 145.892 2.71222 144.907C2.14432 143.915 1.78856 142.805 1.64495 141.578ZM32.7155 147.844L25.8224 138.64H23.3549V147.844H20.9267V127.791H23.3549V136.486H24.4124L32.4413 127.791H35.3396L27.2323 136.604L35.6137 147.844H32.7155ZM53.9457 134.058H51.5174C51.3738 133.36 51.1225 132.746 50.7635 132.217C50.411 131.688 49.9802 131.245 49.471 130.886C48.9684 130.52 48.4103 130.246 47.7967 130.063C47.1831 129.88 46.5434 129.789 45.8776 129.789C44.6634 129.789 43.5635 130.096 42.5779 130.709C41.5987 131.323 40.8187 132.227 40.2377 133.422C39.6633 134.616 39.3761 136.082 39.3761 137.818C39.3761 139.554 39.6633 141.02 40.2377 142.214C40.8187 143.409 41.5987 144.313 42.5779 144.926C43.5635 145.54 44.6634 145.847 45.8776 145.847C46.5434 145.847 47.1831 145.755 47.7967 145.573C48.4103 145.39 48.9684 145.119 49.471 144.76C49.9802 144.394 50.411 143.947 50.7635 143.419C51.1225 142.883 51.3738 142.27 51.5174 141.578H53.9457C53.7629 142.603 53.43 143.52 52.947 144.329C52.4639 145.139 51.8634 145.827 51.1453 146.395C50.4273 146.956 49.6212 147.384 48.7269 147.678C47.8391 147.972 46.8894 148.118 45.8776 148.118C44.1673 148.118 42.6464 147.701 41.3148 146.865C39.9832 146.03 38.9355 144.842 38.1718 143.301C37.408 141.761 37.0262 139.933 37.0262 137.818C37.0262 135.703 37.408 133.875 38.1718 132.335C38.9355 130.794 39.9832 129.606 41.3148 128.771C42.6464 127.935 44.1673 127.517 45.8776 127.517C46.8894 127.517 47.8391 127.664 48.7269 127.958C49.6212 128.252 50.4273 128.682 51.1453 129.25C51.8634 129.812 52.4639 130.497 52.947 131.307C53.43 132.109 53.7629 133.027 53.9457 134.058ZM72.87 127.791V147.844H70.4417V129.946H60.337V147.844H57.9088V127.791H72.87ZM77.7682 147.844V127.791H89.8703V129.946H80.1964V136.721H89.2437V138.875H80.1964V145.69H90.027V147.844H77.7682ZM94.2471 147.844V127.791H101.023C102.596 127.791 103.882 128.075 104.881 128.643C105.886 129.205 106.63 129.965 107.113 130.925C107.596 131.884 107.838 132.955 107.838 134.136C107.838 135.318 107.596 136.392 107.113 137.358C106.636 138.324 105.899 139.094 104.9 139.668C103.901 140.236 102.622 140.52 101.062 140.52H96.2053V138.366H100.984C102.061 138.366 102.926 138.18 103.578 137.808C104.231 137.436 104.704 136.933 104.998 136.3C105.298 135.66 105.448 134.939 105.448 134.136C105.448 133.333 105.298 132.615 104.998 131.982C104.704 131.349 104.228 130.853 103.568 130.494C102.909 130.128 102.034 129.946 100.944 129.946H96.6753V147.844H94.2471ZM110.653 129.946V127.791H125.692V129.946H119.386V147.844H116.958V129.946H110.653ZM129.44 147.844V127.791H131.868V136.721H142.56V127.791H144.989V147.844H142.56V138.875H131.868V147.844H129.44ZM166.769 137.818C166.769 139.933 166.388 141.761 165.624 143.301C164.86 144.842 163.812 146.03 162.481 146.865C161.149 147.701 159.628 148.118 157.918 148.118C156.208 148.118 154.687 147.701 153.355 146.865C152.024 146.03 150.976 144.842 150.212 143.301C149.448 141.761 149.067 139.933 149.067 137.818C149.067 135.703 149.448 133.875 150.212 132.335C150.976 130.794 152.024 129.606 153.355 128.771C154.687 127.935 156.208 127.517 157.918 127.517C159.628 127.517 161.149 127.935 162.481 128.771C163.812 129.606 164.86 130.794 165.624 132.335C166.388 133.875 166.769 135.703 166.769 137.818ZM164.42 137.818C164.42 136.082 164.129 134.616 163.548 133.422C162.974 132.227 162.194 131.323 161.208 130.709C160.229 130.096 159.132 129.789 157.918 129.789C156.704 129.789 155.604 130.096 154.618 130.709C153.639 131.323 152.859 132.227 152.278 133.422C151.704 134.616 151.417 136.082 151.417 137.818C151.417 139.554 151.704 141.02 152.278 142.214C152.859 143.409 153.639 144.313 154.618 144.926C155.604 145.54 156.704 145.847 157.918 145.847C159.132 145.847 160.229 145.54 161.208 144.926C162.194 144.313 162.974 143.409 163.548 142.214C164.129 141.02 164.42 139.554 164.42 137.818ZM179.156 136.741V138.895H170.383V136.741H179.156ZM198.535 127.791V147.844H196.107V129.946H186.002V147.844H183.574V127.791H198.535ZM203.433 147.844V127.791H210.209C211.782 127.791 213.068 128.075 214.067 128.643C215.072 129.205 215.816 129.965 216.299 130.925C216.782 131.884 217.024 132.955 217.024 134.136C217.024 135.318 216.782 136.392 216.299 137.358C215.823 138.324 215.085 139.094 214.086 139.668C213.088 140.236 211.808 140.52 210.248 140.52H205.392V138.366H210.17C211.247 138.366 212.112 138.18 212.765 137.808C213.417 137.436 213.891 136.933 214.184 136.3C214.485 135.66 214.635 134.939 214.635 134.136C214.635 133.333 214.485 132.615 214.184 131.982C213.891 131.349 213.414 130.853 212.755 130.494C212.095 130.128 211.221 129.946 210.131 129.946H205.862V147.844H203.433ZM219.712 147.844H217.166L224.529 127.791H227.036L234.399 147.844H231.853L225.861 130.964H225.704L219.712 147.844ZM220.652 140.011H230.913V142.165H220.652V140.011ZM237.522 147.844V127.791H244.533C245.93 127.791 247.082 128.033 247.989 128.516C248.896 128.993 249.572 129.636 250.016 130.445C250.46 131.248 250.682 132.139 250.682 133.118C250.682 133.98 250.528 134.691 250.222 135.253C249.921 135.814 249.523 136.258 249.027 136.584C248.537 136.911 248.005 137.152 247.431 137.309V137.505C248.045 137.544 248.661 137.759 249.282 138.151C249.902 138.542 250.421 139.104 250.838 139.835C251.256 140.566 251.465 141.46 251.465 142.518C251.465 143.523 251.237 144.427 250.78 145.23C250.323 146.033 249.601 146.669 248.616 147.139C247.63 147.609 246.347 147.844 244.768 147.844H237.522ZM239.95 145.69H244.768C246.354 145.69 247.48 145.383 248.146 144.77C248.818 144.15 249.154 143.399 249.154 142.518C249.154 141.839 248.981 141.212 248.635 140.638C248.289 140.057 247.797 139.593 247.157 139.247C246.517 138.895 245.76 138.719 244.885 138.719H239.95V145.69ZM239.95 136.604H244.454C245.185 136.604 245.845 136.46 246.432 136.173C247.026 135.886 247.496 135.481 247.842 134.959C248.195 134.437 248.371 133.823 248.371 133.118C248.371 132.237 248.064 131.489 247.451 130.876C246.837 130.256 245.864 129.946 244.533 129.946H239.95V136.604ZM272.375 137.818C272.375 139.933 271.993 141.761 271.229 143.301C270.465 144.842 269.418 146.03 268.086 146.865C266.754 147.701 265.233 148.118 263.523 148.118C261.813 148.118 260.292 147.701 258.96 146.865C257.629 146.03 256.581 144.842 255.817 143.301C255.054 141.761 254.672 139.933 254.672 137.818C254.672 135.703 255.054 133.875 255.817 132.335C256.581 130.794 257.629 129.606 258.96 128.771C260.292 127.935 261.813 127.517 263.523 127.517C265.233 127.517 266.754 127.935 268.086 128.771C269.418 129.606 270.465 130.794 271.229 132.335C271.993 133.875 272.375 135.703 272.375 137.818ZM270.025 137.818C270.025 136.082 269.734 134.616 269.153 133.422C268.579 132.227 267.799 131.323 266.813 130.709C265.834 130.096 264.737 129.789 263.523 129.789C262.309 129.789 261.209 130.096 260.223 130.709C259.244 131.323 258.464 132.227 257.883 133.422C257.309 134.616 257.022 136.082 257.022 137.818C257.022 139.554 257.309 141.02 257.883 142.214C258.464 143.409 259.244 144.313 260.223 144.926C261.209 145.54 262.309 145.847 263.523 145.847C264.737 145.847 265.834 145.54 266.813 144.926C267.799 144.313 268.579 143.409 269.153 142.214C269.734 141.02 270.025 139.554 270.025 137.818ZM276.458 147.844V127.791H283.468C284.865 127.791 286.017 128.033 286.925 128.516C287.832 128.993 288.508 129.636 288.951 130.445C289.395 131.248 289.617 132.139 289.617 133.118C289.617 133.98 289.464 134.691 289.157 135.253C288.857 135.814 288.459 136.258 287.962 136.584C287.473 136.911 286.941 137.152 286.366 137.309V137.505C286.98 137.544 287.597 137.759 288.217 138.151C288.837 138.542 289.356 139.104 289.774 139.835C290.192 140.566 290.401 141.46 290.401 142.518C290.401 143.523 290.172 144.427 289.715 145.23C289.258 146.033 288.537 146.669 287.551 147.139C286.566 147.609 285.283 147.844 283.703 147.844H276.458ZM278.886 145.69H283.703C285.289 145.69 286.415 145.383 287.081 144.77C287.754 144.15 288.09 143.399 288.09 142.518C288.09 141.839 287.917 141.212 287.571 140.638C287.225 140.057 286.732 139.593 286.092 139.247C285.453 138.895 284.695 138.719 283.821 138.719H278.886V145.69ZM278.886 136.604H283.39C284.121 136.604 284.78 136.46 285.368 136.173C285.962 135.886 286.432 135.481 286.778 134.959C287.13 134.437 287.306 133.823 287.306 133.118C287.306 132.237 287 131.489 286.386 130.876C285.772 130.256 284.8 129.946 283.468 129.946H278.886V136.604ZM311.31 137.818C311.31 139.933 310.928 141.761 310.164 143.301C309.401 144.842 308.353 146.03 307.021 146.865C305.69 147.701 304.169 148.118 302.459 148.118C300.748 148.118 299.227 147.701 297.896 146.865C296.564 146.03 295.517 144.842 294.753 143.301C293.989 141.761 293.607 139.933 293.607 137.818C293.607 135.703 293.989 133.875 294.753 132.335C295.517 130.794 296.564 129.606 297.896 128.771C299.227 127.935 300.748 127.517 302.459 127.517C304.169 127.517 305.69 127.935 307.021 128.771C308.353 129.606 309.401 130.794 310.164 132.335C310.928 133.875 311.31 135.703 311.31 137.818ZM308.96 137.818C308.96 136.082 308.67 134.616 308.089 133.422C307.514 132.227 306.734 131.323 305.749 130.709C304.769 130.096 303.673 129.789 302.459 129.789C301.244 129.789 300.145 130.096 299.159 130.709C298.18 131.323 297.4 132.227 296.819 133.422C296.244 134.616 295.957 136.082 295.957 137.818C295.957 139.554 296.244 141.02 296.819 142.214C297.4 143.409 298.18 144.313 299.159 144.926C300.145 145.54 301.244 145.847 302.459 145.847C303.673 145.847 304.769 145.54 305.749 144.926C306.734 144.313 307.514 143.409 308.089 142.214C308.67 141.02 308.96 139.554 308.96 137.818ZM315.393 127.791H317.782V143.575H317.978L328.944 127.791H331.294V147.844H328.866V132.1H328.67L317.743 147.844H315.393V127.791ZM325.263 122.778H327.417C327.417 123.836 327.051 124.701 326.32 125.373C325.589 126.045 324.597 126.382 323.344 126.382C322.11 126.382 321.128 126.045 320.396 125.373C319.672 124.701 319.31 123.836 319.31 122.778H321.464C321.464 123.287 321.604 123.735 321.885 124.12C322.172 124.505 322.658 124.697 323.344 124.697C324.029 124.697 324.519 124.505 324.812 124.12C325.113 123.735 325.263 123.287 325.263 122.778ZM360.945 145.533L360.671 152.583H358.164V147.844H356.754V145.533H360.945ZM343.908 147.844V127.791H346.219V145.612H356.559V127.791H358.869V147.844H343.908ZM364.614 147.844V127.791H376.717V129.946H367.043V136.721H376.09V138.875H367.043V145.69H376.873V147.844H364.614ZM381.093 147.844V127.791H383.522V136.721H394.214V127.791H396.642V147.844H394.214V138.875H383.522V147.844H381.093ZM400.407 129.946V127.791H415.446V129.946H409.141V147.844H406.712V129.946H400.407ZM419.194 147.844V127.791H425.97C427.543 127.791 428.829 128.075 429.828 128.643C430.833 129.205 431.577 129.965 432.06 130.925C432.543 131.884 432.785 132.955 432.785 134.136C432.785 135.318 432.543 136.392 432.06 137.358C431.583 138.324 430.846 139.094 429.847 139.668C428.848 140.236 427.569 140.52 426.009 140.52H421.152V138.366H425.931C427.008 138.366 427.873 138.18 428.525 137.808C429.178 137.436 429.651 136.933 429.945 136.3C430.245 135.66 430.395 134.939 430.395 134.136C430.395 133.333 430.245 132.615 429.945 131.982C429.651 131.349 429.175 130.853 428.515 130.494C427.856 130.128 426.981 129.946 425.891 129.946H421.622V147.844H419.194Z" fill="#FCFAF7"/>
</svg>
