<svg width="183" height="49" viewBox="0 0 183 49" fill="none" xmlns="http://www.w3.org/2000/svg">
<path d="M15.8884 13.7375C16.3069 13.7575 16.8549 13.7774 17.5325 13.7973C18.21 13.8173 18.8776 13.8272 19.5353 13.8272C20.4719 13.8272 21.3686 13.8173 22.2256 13.7973C23.0825 13.7774 23.6903 13.7674 24.049 13.7674C26.1414 13.7674 27.7157 14.2059 28.7719 15.0827C29.8281 15.9595 30.3562 17.0855 30.3562 18.4605C30.3562 19.158 30.2067 19.8455 29.9078 20.5231C29.6288 21.1807 29.1506 21.7885 28.473 22.3465C27.8154 22.8845 26.9286 23.323 25.8126 23.6617V23.7215C27.3869 23.9208 28.6125 24.2994 29.4893 24.8574C30.3861 25.3955 31.0138 26.0332 31.3725 26.7705C31.7312 27.5078 31.9106 28.285 31.9106 29.1021C31.9106 30.238 31.6216 31.2444 31.0437 32.1212C30.4857 32.9781 29.6687 33.6557 28.5926 34.1539C27.5165 34.6521 26.2311 34.9012 24.7365 34.9012C24.2981 34.9012 23.6404 34.8912 22.7636 34.8713C21.8868 34.8314 20.8306 34.8115 19.595 34.8115C18.8976 34.8115 18.21 34.8214 17.5325 34.8414C16.8549 34.8414 16.3069 34.8613 15.8884 34.9012V34.3033C16.566 34.2635 17.0741 34.1838 17.4129 34.0642C17.7716 33.9446 18.0108 33.7055 18.1303 33.3468C18.2499 32.9881 18.3097 32.45 18.3097 31.7326V16.9061C18.3097 16.1688 18.2499 15.6307 18.1303 15.2919C18.0108 14.9332 17.7716 14.6941 17.4129 14.5745C17.0741 14.435 16.566 14.3553 15.8884 14.3354V13.7375ZM23.3017 14.3354C22.385 14.3354 21.7871 14.5048 21.5081 14.8436C21.2292 15.1823 21.0897 15.8699 21.0897 16.9061V31.7326C21.0897 32.4301 21.1494 32.9582 21.269 33.3169C21.3886 33.6756 21.6078 33.9147 21.9266 34.0343C22.2455 34.1539 22.7138 34.2136 23.3316 34.2136C25.2845 34.2136 26.6994 33.7653 27.5762 32.8685C28.473 31.9518 28.9214 30.6565 28.9214 28.9825C28.9214 27.4481 28.5029 26.2623 27.6659 25.4254C26.8489 24.5884 25.4938 24.1699 23.6006 24.1699H20.5217C20.5217 24.1699 20.5217 24.0902 20.5217 23.9308C20.5217 23.7514 20.5217 23.6617 20.5217 23.6617H23.0924C24.2682 23.6617 25.1749 23.4425 25.8126 23.0041C26.4503 22.5458 26.8887 21.9479 27.1279 21.2106C27.367 20.4533 27.4866 19.6462 27.4866 18.7893C27.4866 17.3146 27.1578 16.2086 26.5001 15.4713C25.8624 14.714 24.7963 14.3354 23.3017 14.3354Z" fill="#482C0C"/>
<circle cx="23.9545" cy="24.5" r="23.6123" stroke="#482C0C" stroke-width="0.684417"/>
<path d="M46.4599 24.5001C46.4599 36.9049 36.4067 46.961 24.0056 46.961C11.6045 46.961 1.55133 36.9049 1.55133 24.5001C1.55133 12.0953 11.6045 2.03925 24.0056 2.03925C36.4067 2.03925 46.4599 12.0953 46.4599 24.5001Z" stroke="#482C0C" stroke-width="0.169069"/>
<circle cx="23.6693" cy="24.7852" r="18.4506" stroke="#482C0C" stroke-width="0.171104"/>
<circle cx="11.3577" cy="24.7852" r="1.03813" fill="#482C0C"/>
<circle cx="36.5513" cy="24.7852" r="1.03813" fill="#482C0C"/>
<path d="M55.4281 8.5017C55.9041 8.52437 56.5274 8.54703 57.2981 8.5697C58.0688 8.59237 58.8282 8.6037 59.5762 8.6037C60.6416 8.6037 61.6616 8.59237 62.6363 8.5697C63.611 8.54703 64.3024 8.5357 64.7104 8.5357C67.0905 8.5357 68.8812 9.03438 70.0826 10.0318C71.284 11.0291 71.8847 12.3098 71.8847 13.8739C71.8847 14.6673 71.7147 15.4493 71.3746 16.22C71.0573 16.968 70.5133 17.6594 69.7426 18.2941C68.9946 18.9061 67.9858 19.4048 66.7165 19.7901V19.8581C68.5072 20.0848 69.9013 20.5155 70.8986 21.1502C71.9187 21.7622 72.6327 22.4875 73.0407 23.3262C73.4487 24.1649 73.6527 25.049 73.6527 25.9783C73.6527 27.2704 73.324 28.4151 72.6667 29.4125C72.032 30.3872 71.1026 31.1579 69.8786 31.7246C68.6545 32.2912 67.1925 32.5746 65.4924 32.5746C64.9937 32.5746 64.2457 32.5633 63.2483 32.5406C62.251 32.4952 61.0496 32.4726 59.6442 32.4726C58.8508 32.4726 58.0688 32.4839 57.2981 32.5066C56.5274 32.5066 55.9041 32.5292 55.4281 32.5746V31.8946C56.1987 31.8492 56.7768 31.7586 57.1621 31.6225C57.5701 31.4865 57.8421 31.2145 57.9781 30.8065C58.1142 30.3985 58.1822 29.7865 58.1822 28.9705V12.1058C58.1822 11.2671 58.1142 10.6551 57.9781 10.2698C57.8421 9.86175 57.5701 9.58974 57.1621 9.45373C56.7768 9.29506 56.1987 9.20439 55.4281 9.18172V8.5017ZM63.8604 9.18172C62.8177 9.18172 62.1376 9.3744 61.8203 9.75975C61.5029 10.1451 61.3443 10.9271 61.3443 12.1058V28.9705C61.3443 29.7638 61.4123 30.3645 61.5483 30.7725C61.6843 31.1805 61.9336 31.4525 62.2963 31.5885C62.659 31.7246 63.1917 31.7926 63.8944 31.7926C66.1158 31.7926 67.7252 31.2825 68.7225 30.2625C69.7426 29.2198 70.2526 27.7464 70.2526 25.8423C70.2526 24.0969 69.7766 22.7482 68.8245 21.7962C67.8952 20.8442 66.3538 20.3681 64.2004 20.3681H60.6982C60.6982 20.3681 60.6982 20.2775 60.6982 20.0961C60.6982 19.8921 60.6982 19.7901 60.6982 19.7901H63.6224C64.9597 19.7901 65.9911 19.5408 66.7165 19.0421C67.4418 18.5207 67.9405 17.8407 68.2125 17.002C68.4845 16.1406 68.6205 15.2226 68.6205 14.2479C68.6205 12.5705 68.2465 11.3125 67.4985 10.4738C66.7731 9.61241 65.5604 9.18172 63.8604 9.18172ZM93.0066 8.5017C92.9159 9.29506 92.8479 10.0658 92.8026 10.8138C92.7799 11.5618 92.7686 12.1285 92.7686 12.5138C92.7686 12.9219 92.7799 13.3185 92.8026 13.7039C92.8253 14.0666 92.8479 14.3726 92.8706 14.6219H92.0886C91.9526 13.2845 91.7599 12.2305 91.5106 11.4598C91.2612 10.6664 90.8305 10.1111 90.2185 9.79375C89.6292 9.45373 88.7338 9.28373 87.5324 9.28373H84.7103C83.9396 9.28373 83.3503 9.35173 82.9422 9.48773C82.5569 9.60107 82.2962 9.86175 82.1602 10.2698C82.0242 10.6551 81.9562 11.2671 81.9562 12.1058V28.9705C81.9562 29.7865 82.0242 30.3985 82.1602 30.8065C82.2962 31.2145 82.5569 31.4865 82.9422 31.6225C83.3503 31.7359 83.9396 31.7926 84.7103 31.7926H87.1924C88.6204 31.7926 89.6972 31.5999 90.4225 31.2145C91.1705 30.8292 91.7032 30.2058 92.0206 29.3445C92.3606 28.4604 92.6099 27.2704 92.7686 25.7743H93.5506C93.4826 26.3864 93.4486 27.2024 93.4486 28.2224C93.4486 28.6531 93.46 29.2765 93.4826 30.0925C93.528 30.8859 93.596 31.7132 93.6866 32.5746C92.5306 32.5292 91.2272 32.5066 89.7765 32.5066C88.3258 32.4839 87.0337 32.4726 85.9003 32.4726C85.4017 32.4726 84.7556 32.4726 83.9623 32.4726C83.1916 32.4726 82.3529 32.4839 81.4462 32.5066C80.5395 32.5066 79.6214 32.5179 78.6921 32.5406C77.7627 32.5406 76.8787 32.5519 76.04 32.5746V31.8946C76.8107 31.8492 77.3887 31.7586 77.774 31.6225C78.1821 31.4865 78.4541 31.2145 78.5901 30.8065C78.7261 30.3985 78.7941 29.7865 78.7941 28.9705V12.1058C78.7941 11.2671 78.7261 10.6551 78.5901 10.2698C78.4541 9.86175 78.1821 9.58974 77.774 9.45373C77.3887 9.29506 76.8107 9.20439 76.04 9.18172V8.5017C76.8787 8.52437 77.7627 8.54703 78.6921 8.5697C79.6214 8.5697 80.5395 8.58103 81.4462 8.6037C82.3529 8.6037 83.1916 8.6037 83.9623 8.6037C84.7556 8.6037 85.4017 8.6037 85.9003 8.6037C86.9431 8.6037 88.1218 8.6037 89.4365 8.6037C90.7739 8.58103 91.9639 8.54703 93.0066 8.5017ZM87.1584 20.1301C87.1584 20.1301 87.1584 20.2435 87.1584 20.4701C87.1584 20.6968 87.1584 20.8102 87.1584 20.8102H80.9362C80.9362 20.8102 80.9362 20.6968 80.9362 20.4701C80.9362 20.2435 80.9362 20.1301 80.9362 20.1301H87.1584ZM88.1444 15.642C88.0538 16.934 88.0084 17.92 88.0084 18.6001C88.0311 19.2801 88.0424 19.9035 88.0424 20.4701C88.0424 21.0368 88.0538 21.6602 88.0764 22.3402C88.0991 23.0202 88.1558 24.0063 88.2464 25.2983H87.4644C87.3737 24.573 87.2604 23.8703 87.1244 23.1902C87.0111 22.4875 86.739 21.9209 86.3084 21.4902C85.9003 21.0368 85.1977 20.8102 84.2003 20.8102V20.1301C84.9483 20.1301 85.515 19.9828 85.9003 19.6881C86.3084 19.3708 86.603 18.9741 86.7844 18.4981C86.9657 18.022 87.0904 17.5347 87.1584 17.036C87.2264 16.5147 87.2944 16.05 87.3624 15.642H88.1444ZM105.09 8.5017V9.18172C104.319 9.20439 103.73 9.29506 103.322 9.45373C102.936 9.58974 102.676 9.86175 102.54 10.2698C102.404 10.6551 102.336 11.2671 102.336 12.1058V28.9705C102.336 29.7865 102.404 30.3985 102.54 30.8065C102.676 31.2145 102.936 31.4865 103.322 31.6225C103.73 31.7586 104.319 31.8492 105.09 31.8946V32.5746C104.568 32.5292 103.911 32.5066 103.118 32.5066C102.347 32.4839 101.565 32.4726 100.772 32.4726C99.8876 32.4726 99.0602 32.4839 98.2896 32.5066C97.5189 32.5066 96.8955 32.5292 96.4195 32.5746V31.8946C97.1902 31.8492 97.7682 31.7586 98.1535 31.6225C98.5616 31.4865 98.8336 31.2145 98.9696 30.8065C99.1056 30.3985 99.1736 29.7865 99.1736 28.9705V12.1058C99.1736 11.2671 99.1056 10.6551 98.9696 10.2698C98.8336 9.86175 98.5616 9.58974 98.1535 9.45373C97.7682 9.29506 97.1902 9.20439 96.4195 9.18172V8.5017C96.8955 8.52437 97.5189 8.54703 98.2896 8.5697C99.0602 8.59237 99.8876 8.6037 100.772 8.6037C101.565 8.6037 102.347 8.59237 103.118 8.5697C103.911 8.54703 104.568 8.52437 105.09 8.5017ZM104.716 19.7901C105.917 19.7901 107.039 19.9148 108.082 20.1641C109.147 20.4135 110.054 20.8895 110.802 21.5922C111.55 22.2949 112.083 23.3376 112.4 24.7203L113.386 29.0045C113.635 30.0472 113.862 30.7839 114.066 31.2145C114.27 31.6225 114.621 31.8152 115.12 31.7926C115.506 31.7699 115.823 31.6452 116.072 31.4185C116.344 31.1919 116.628 30.8859 116.922 30.5005L117.432 30.8745C117.002 31.5092 116.526 32.0306 116.004 32.4386C115.483 32.8466 114.746 33.0506 113.794 33.0506C113.001 33.0506 112.275 32.8239 111.618 32.3706C110.983 31.8946 110.496 30.8972 110.156 29.3785L109.204 25.1623C109 24.2103 108.762 23.3829 108.49 22.6802C108.218 21.9775 107.787 21.4335 107.198 21.0482C106.609 20.6401 105.736 20.4361 104.58 20.4361H101.69V19.7901H104.716ZM102.336 20.4361V19.7901C103.288 19.7674 104.081 19.5748 104.716 19.2121C105.373 18.8267 105.917 18.3621 106.348 17.818L109.612 13.6699C110.36 12.7179 110.87 11.9132 111.142 11.2558C111.414 10.5984 111.403 10.0998 111.108 9.75975C110.813 9.39706 110.19 9.20439 109.238 9.18172V8.5017C109.669 8.52437 110.111 8.54703 110.564 8.5697C111.017 8.5697 111.459 8.58103 111.89 8.6037C112.343 8.6037 112.763 8.6037 113.148 8.6037C113.737 8.6037 114.281 8.59237 114.78 8.5697C115.279 8.54703 115.698 8.52437 116.038 8.5017V9.18172C115.336 9.27239 114.655 9.5104 113.998 9.89575C113.341 10.2584 112.683 10.8478 112.026 11.6638L105.124 20.4361H102.336ZM137.824 8.5017C137.733 9.36306 137.665 10.2018 137.62 11.0178C137.597 11.8112 137.586 12.4232 137.586 12.8539C137.586 13.3979 137.597 13.9079 137.62 14.3839C137.643 14.8599 137.665 15.2793 137.688 15.642H136.906C136.747 14.0552 136.532 12.8085 136.26 11.9018C135.988 10.9725 135.512 10.3038 134.832 9.89575C134.152 9.48773 133.098 9.28373 131.67 9.28373H129.834V28.6304C129.834 29.5371 129.913 30.2172 130.072 30.6705C130.253 31.1239 130.593 31.4299 131.092 31.5885C131.59 31.7472 132.316 31.8492 133.268 31.8946V32.5746C132.678 32.5292 131.93 32.5066 131.024 32.5066C130.117 32.4839 129.199 32.4726 128.27 32.4726C127.25 32.4726 126.286 32.4839 125.38 32.5066C124.495 32.5066 123.781 32.5292 123.237 32.5746V31.8946C124.189 31.8492 124.915 31.7472 125.414 31.5885C125.912 31.4299 126.241 31.1239 126.4 30.6705C126.581 30.2172 126.672 29.5371 126.672 28.6304V9.28373H124.835C123.43 9.28373 122.376 9.48773 121.673 9.89575C120.993 10.3038 120.517 10.9725 120.245 11.9018C119.973 12.8085 119.758 14.0552 119.599 15.642H118.817C118.863 15.2793 118.885 14.8599 118.885 14.3839C118.908 13.9079 118.919 13.3979 118.919 12.8539C118.919 12.4232 118.897 11.8112 118.851 11.0178C118.829 10.2018 118.772 9.36306 118.681 8.5017C119.633 8.52437 120.665 8.54703 121.775 8.5697C122.909 8.59237 124.042 8.6037 125.176 8.6037C126.309 8.6037 127.34 8.6037 128.27 8.6037C129.199 8.6037 130.219 8.6037 131.33 8.6037C132.463 8.6037 133.596 8.59237 134.73 8.5697C135.863 8.54703 136.895 8.52437 137.824 8.5017ZM151.088 8.02568C153.241 8.02568 155.122 8.51303 156.732 9.48773C158.364 10.4624 159.622 11.8678 160.506 13.7039C161.413 15.5173 161.866 17.7274 161.866 20.3341C161.866 22.8729 161.401 25.0943 160.472 26.9984C159.565 28.9024 158.296 30.3872 156.664 31.4525C155.032 32.5179 153.162 33.0506 151.054 33.0506C148.9 33.0506 147.008 32.5633 145.375 31.5885C143.766 30.6138 142.508 29.2085 141.601 27.3724C140.717 25.5363 140.275 23.3262 140.275 20.7421C140.275 18.2034 140.74 15.982 141.669 14.0779C142.599 12.1738 143.868 10.6891 145.477 9.62374C147.11 8.55837 148.98 8.02568 151.088 8.02568ZM150.952 8.6377C149.478 8.6377 148.198 9.14772 147.11 10.1678C146.021 11.1878 145.171 12.5932 144.559 14.3839C143.97 16.1746 143.675 18.2487 143.675 20.6061C143.675 23.0089 144.004 25.1056 144.661 26.8964C145.341 28.6644 146.248 30.0358 147.382 31.0105C148.538 31.9626 149.807 32.4386 151.19 32.4386C152.663 32.4386 153.944 31.9286 155.032 30.9085C156.12 29.8885 156.959 28.4831 157.548 26.6924C158.16 24.879 158.466 22.8049 158.466 20.4701C158.466 18.0447 158.126 15.948 157.446 14.1799C156.789 12.4118 155.893 11.0518 154.76 10.0998C153.626 9.12505 152.357 8.6377 150.952 8.6377ZM164.498 8.5017C164.974 8.52437 165.597 8.54703 166.368 8.5697C167.138 8.59237 167.898 8.6037 168.646 8.6037C169.711 8.6037 170.731 8.59237 171.706 8.5697C172.681 8.54703 173.372 8.5357 173.78 8.5357C176.523 8.5357 178.574 9.15906 179.934 10.4058C181.294 11.6525 181.974 13.2619 181.974 15.2339C181.974 16.05 181.838 16.9113 181.566 17.818C181.294 18.7021 180.818 19.5294 180.138 20.3001C179.481 21.0482 178.574 21.6602 177.418 22.1362C176.262 22.6122 174.8 22.8502 173.032 22.8502H169.768V22.1702H172.692C174.301 22.1702 175.525 21.8642 176.364 21.2522C177.225 20.6401 177.804 19.8354 178.098 18.8381C178.416 17.8407 178.574 16.764 178.574 15.608C178.574 13.4545 178.144 11.8452 177.282 10.7798C176.443 9.71441 174.993 9.18172 172.93 9.18172C171.887 9.18172 171.207 9.3744 170.89 9.75975C170.573 10.1451 170.414 10.9271 170.414 12.1058V28.9705C170.414 29.7865 170.493 30.3985 170.652 30.8065C170.833 31.2145 171.173 31.4865 171.672 31.6225C172.171 31.7586 172.896 31.8492 173.848 31.8946V32.5746C173.259 32.5292 172.511 32.5066 171.604 32.5066C170.697 32.4839 169.779 32.4726 168.85 32.4726C167.966 32.4726 167.138 32.4839 166.368 32.5066C165.597 32.5066 164.974 32.5292 164.498 32.5746V31.8946C165.268 31.8492 165.846 31.7586 166.232 31.6225C166.64 31.4865 166.912 31.2145 167.048 30.8065C167.184 30.3985 167.252 29.7865 167.252 28.9705V12.1058C167.252 11.2671 167.184 10.6551 167.048 10.2698C166.912 9.86175 166.64 9.58974 166.232 9.45373C165.846 9.29506 165.268 9.20439 164.498 9.18172V8.5017Z" fill="#482C0C"/>
<path d="M58.3555 42.0835V42.7223H55.9048V42.0835H58.3555ZM54.4878 43.4424H55.2311C55.295 43.8606 55.4363 44.1819 55.6551 44.4065C55.8738 44.631 56.2242 44.7433 56.7062 44.7433C57.0469 44.7433 57.3315 44.6475 57.5599 44.4558C57.7902 44.2642 57.9625 44.0106 58.0767 43.6951C58.1929 43.3795 58.251 43.0359 58.251 42.6643V42.0022C58.251 41.5918 58.1861 41.2308 58.0564 40.9192C57.9286 40.6056 57.7438 40.3617 57.5018 40.1874C57.2618 40.0113 56.9733 39.9232 56.6365 39.9232C56.3423 39.9232 56.0984 39.9755 55.9048 40.08C55.7112 40.1845 55.5602 40.3346 55.4518 40.5301C55.3434 40.7256 55.2699 40.9608 55.2311 41.2357H54.4878C54.5265 40.8563 54.6301 40.5194 54.7985 40.2252C54.9689 39.929 55.206 39.6967 55.5099 39.5283C55.8158 39.358 56.1913 39.2728 56.6365 39.2728C57.1205 39.2728 57.5386 39.386 57.8909 39.6125C58.2432 39.8371 58.5152 40.1536 58.7068 40.562C58.8985 40.9685 58.9943 41.4447 58.9943 41.9906V42.6759C58.9943 43.2218 58.8994 43.698 58.7097 44.1045C58.52 44.5091 58.2539 44.8236 57.9112 45.0482C57.5686 45.2708 57.1669 45.3821 56.7062 45.3821C56.2339 45.3821 55.8409 45.2969 55.5273 45.1266C55.2157 44.9543 54.9747 44.722 54.8043 44.4297C54.6359 44.1354 54.5304 43.8064 54.4878 43.4424ZM63.7018 45.3008L61.6577 42.5713H60.9259V45.3008H60.2058V39.3541H60.9259V41.9325H61.2395L63.6205 39.3541H64.48L62.0758 41.9674L64.5613 45.3008H63.7018ZM69.9977 41.2124H69.2776C69.235 41.0053 69.1605 40.8233 69.054 40.6665C68.9495 40.5098 68.8217 40.3781 68.6707 40.2717C68.5217 40.1632 68.3562 40.0819 68.1742 40.0277C67.9922 39.9735 67.8025 39.9464 67.6051 39.9464C67.245 39.9464 66.9188 40.0374 66.6265 40.2194C66.3362 40.4013 66.1049 40.6695 65.9326 41.0237C65.7622 41.3779 65.677 41.8125 65.677 42.3274C65.677 42.8424 65.7622 43.2769 65.9326 43.6312C66.1049 43.9854 66.3362 44.2535 66.6265 44.4355C66.9188 44.6175 67.245 44.7084 67.6051 44.7084C67.8025 44.7084 67.9922 44.6813 68.1742 44.6271C68.3562 44.5729 68.5217 44.4926 68.6707 44.3861C68.8217 44.2777 68.9495 44.1451 69.054 43.9883C69.1605 43.8296 69.235 43.6476 69.2776 43.4424H69.9977C69.9435 43.7464 69.8448 44.0183 69.7015 44.2584C69.5583 44.4984 69.3802 44.7026 69.1672 44.871C68.9543 45.0375 68.7152 45.1643 68.45 45.2514C68.1868 45.3385 67.9051 45.3821 67.6051 45.3821C67.0979 45.3821 66.6469 45.2582 66.252 45.0104C65.8571 44.7626 65.5464 44.4103 65.3199 43.9535C65.0934 43.4966 64.9802 42.9546 64.9802 42.3274C64.9802 41.7002 65.0934 41.1582 65.3199 40.7014C65.5464 40.2446 65.8571 39.8922 66.252 39.6445C66.6469 39.3967 67.0979 39.2728 67.6051 39.2728C67.9051 39.2728 68.1868 39.3163 68.45 39.4035C68.7152 39.4906 68.9543 39.6183 69.1672 39.7867C69.3802 39.9532 69.5583 40.1565 69.7015 40.3965C69.8448 40.6346 69.9435 40.9066 69.9977 41.2124ZM75.6097 39.3541V45.3008H74.8896V39.9929H71.893V45.3008H71.1729V39.3541H75.6097ZM77.0623 45.3008V39.3541H80.6512V39.9929H77.7824V42.0022H80.4654V42.641H77.7824V44.662H80.6977V45.3008H77.0623ZM81.9491 45.3008V39.3541H83.9585C84.425 39.3541 84.8063 39.4383 85.1025 39.6067C85.4006 39.7732 85.6213 39.9987 85.7645 40.2833C85.9078 40.5678 85.9794 40.8853 85.9794 41.2357C85.9794 41.586 85.9078 41.9045 85.7645 42.191C85.6232 42.4775 85.4045 42.7059 85.1083 42.8762C84.8121 43.0446 84.4327 43.1288 83.9701 43.1288H82.5299V42.49H83.9468C84.2662 42.49 84.5227 42.4349 84.7163 42.3245C84.9099 42.2142 85.0502 42.0651 85.1373 41.8774C85.2264 41.6877 85.2709 41.4738 85.2709 41.2357C85.2709 40.9976 85.2264 40.7846 85.1373 40.5969C85.0502 40.4091 84.9089 40.262 84.7134 40.1555C84.5179 40.0471 84.2585 39.9929 83.9352 39.9929H82.6692V45.3008H81.9491ZM86.8142 39.9929V39.3541H91.2742V39.9929H89.4043V45.3008H88.6842V39.9929H86.8142ZM92.3856 45.3008V39.3541H93.1057V42.0022H96.2765V39.3541H96.9966V45.3008H96.2765V42.641H93.1057V45.3008H92.3856ZM103.456 42.3274C103.456 42.9546 103.343 43.4966 103.116 43.9535C102.89 44.4103 102.579 44.7626 102.184 45.0104C101.789 45.2582 101.338 45.3821 100.831 45.3821C100.324 45.3821 99.8727 45.2582 99.4778 45.0104C99.0829 44.7626 98.7722 44.4103 98.5457 43.9535C98.3192 43.4966 98.206 42.9546 98.206 42.3274C98.206 41.7002 98.3192 41.1582 98.5457 40.7014C98.7722 40.2446 99.0829 39.8922 99.4778 39.6445C99.8727 39.3967 100.324 39.2728 100.831 39.2728C101.338 39.2728 101.789 39.3967 102.184 39.6445C102.579 39.8922 102.89 40.2446 103.116 40.7014C103.343 41.1582 103.456 41.7002 103.456 42.3274ZM102.759 42.3274C102.759 41.8125 102.673 41.3779 102.5 41.0237C102.33 40.6695 102.099 40.4013 101.807 40.2194C101.516 40.0374 101.191 39.9464 100.831 39.9464C100.471 39.9464 100.145 40.0374 99.8523 40.2194C99.562 40.4013 99.3307 40.6695 99.1584 41.0237C98.988 41.3779 98.9028 41.8125 98.9028 42.3274C98.9028 42.8424 98.988 43.2769 99.1584 43.6312C99.3307 43.9854 99.562 44.2535 99.8523 44.4355C100.145 44.6175 100.471 44.7084 100.831 44.7084C101.191 44.7084 101.516 44.6175 101.807 44.4355C102.099 44.2535 102.33 43.9854 102.5 43.6312C102.673 43.2769 102.759 42.8424 102.759 42.3274ZM107.129 42.008V42.6468H104.527V42.008H107.129ZM112.876 39.3541V45.3008H112.156V39.9929H109.159V45.3008H108.439V39.3541H112.876ZM114.329 45.3008V39.3541H116.338C116.804 39.3541 117.186 39.4383 117.482 39.6067C117.78 39.7732 118.001 39.9987 118.144 40.2833C118.287 40.5678 118.359 40.8853 118.359 41.2357C118.359 41.586 118.287 41.9045 118.144 42.191C118.003 42.4775 117.784 42.7059 117.488 42.8762C117.192 43.0446 116.812 43.1288 116.349 43.1288H114.909V42.49H116.326C116.646 42.49 116.902 42.4349 117.096 42.3245C117.289 42.2142 117.43 42.0651 117.517 41.8774C117.606 41.6877 117.65 41.4738 117.65 41.2357C117.65 40.9976 117.606 40.7846 117.517 40.5969C117.43 40.4091 117.288 40.262 117.093 40.1555C116.897 40.0471 116.638 39.9929 116.315 39.9929H115.049V45.3008H114.329ZM119.156 45.3008H118.401L120.584 39.3541H121.328L123.511 45.3008H122.756L120.979 40.2949H120.933L119.156 45.3008ZM119.435 42.9779H122.478V43.6167H119.435V42.9779ZM124.438 45.3008V39.3541H126.517C126.931 39.3541 127.273 39.4257 127.542 39.569C127.811 39.7103 128.011 39.901 128.143 40.141C128.274 40.3791 128.34 40.6433 128.34 40.9337C128.34 41.1892 128.295 41.4002 128.204 41.5667C128.115 41.7332 127.996 41.8648 127.849 41.9616C127.704 42.0584 127.546 42.13 127.376 42.1764V42.2345C127.558 42.2461 127.741 42.31 127.925 42.4262C128.109 42.5423 128.263 42.7088 128.387 42.9256C128.51 43.1424 128.572 43.4076 128.572 43.7212C128.572 44.0193 128.505 44.2874 128.369 44.5255C128.234 44.7636 128.02 44.9523 127.727 45.0917C127.435 45.2311 127.055 45.3008 126.586 45.3008H124.438ZM125.158 44.662H126.586C127.057 44.662 127.391 44.571 127.588 44.389C127.787 44.2051 127.887 43.9825 127.887 43.7212C127.887 43.5199 127.836 43.334 127.733 43.1637C127.631 42.9914 127.484 42.854 127.295 42.7514C127.105 42.6468 126.881 42.5946 126.621 42.5946H125.158V44.662ZM125.158 41.9674H126.493C126.71 41.9674 126.906 41.9248 127.08 41.8396C127.256 41.7545 127.395 41.6344 127.498 41.4796C127.603 41.3247 127.655 41.1427 127.655 40.9337C127.655 40.6724 127.564 40.4507 127.382 40.2687C127.2 40.0848 126.911 39.9929 126.517 39.9929H125.158V41.9674ZM134.773 42.3274C134.773 42.9546 134.66 43.4966 134.433 43.9535C134.207 44.4103 133.896 44.7626 133.501 45.0104C133.106 45.2582 132.655 45.3821 132.148 45.3821C131.641 45.3821 131.19 45.2582 130.795 45.0104C130.4 44.7626 130.09 44.4103 129.863 43.9535C129.637 43.4966 129.523 42.9546 129.523 42.3274C129.523 41.7002 129.637 41.1582 129.863 40.7014C130.09 40.2446 130.4 39.8922 130.795 39.6445C131.19 39.3967 131.641 39.2728 132.148 39.2728C132.655 39.2728 133.106 39.3967 133.501 39.6445C133.896 39.8922 134.207 40.2446 134.433 40.7014C134.66 41.1582 134.773 41.7002 134.773 42.3274ZM134.076 42.3274C134.076 41.8125 133.99 41.3779 133.818 41.0237C133.647 40.6695 133.416 40.4013 133.124 40.2194C132.834 40.0374 132.508 39.9464 132.148 39.9464C131.788 39.9464 131.462 40.0374 131.17 40.2194C130.879 40.4013 130.648 40.6695 130.476 41.0237C130.305 41.3779 130.22 41.8125 130.22 42.3274C130.22 42.8424 130.305 43.2769 130.476 43.6312C130.648 43.9854 130.879 44.2535 131.17 44.4355C131.462 44.6175 131.788 44.7084 132.148 44.7084C132.508 44.7084 132.834 44.6175 133.124 44.4355C133.416 44.2535 133.647 43.9854 133.818 43.6312C133.99 43.2769 134.076 42.8424 134.076 42.3274ZM135.984 45.3008V39.3541H138.063C138.477 39.3541 138.819 39.4257 139.088 39.569C139.357 39.7103 139.557 39.901 139.689 40.141C139.821 40.3791 139.886 40.6433 139.886 40.9337C139.886 41.1892 139.841 41.4002 139.75 41.5667C139.661 41.7332 139.543 41.8648 139.396 41.9616C139.251 42.0584 139.093 42.13 138.922 42.1764V42.2345C139.104 42.2461 139.287 42.31 139.471 42.4262C139.655 42.5423 139.809 42.7088 139.933 42.9256C140.057 43.1424 140.119 43.4076 140.119 43.7212C140.119 44.0193 140.051 44.2874 139.916 44.5255C139.78 44.7636 139.566 44.9523 139.274 45.0917C138.982 45.2311 138.601 45.3008 138.133 45.3008H135.984ZM136.704 44.662H138.133C138.603 44.662 138.937 44.571 139.134 44.389C139.334 44.2051 139.434 43.9825 139.434 43.7212C139.434 43.5199 139.382 43.334 139.28 43.1637C139.177 42.9914 139.031 42.854 138.841 42.7514C138.651 42.6468 138.427 42.5946 138.168 42.5946H136.704V44.662ZM136.704 41.9674H138.04C138.257 41.9674 138.452 41.9248 138.626 41.8396C138.802 41.7545 138.942 41.6344 139.044 41.4796C139.149 41.3247 139.201 41.1427 139.201 40.9337C139.201 40.6724 139.11 40.4507 138.928 40.2687C138.746 40.0848 138.458 39.9929 138.063 39.9929H136.704V41.9674ZM146.32 42.3274C146.32 42.9546 146.206 43.4966 145.98 43.9535C145.753 44.4103 145.443 44.7626 145.048 45.0104C144.653 45.2582 144.202 45.3821 143.695 45.3821C143.187 45.3821 142.736 45.2582 142.342 45.0104C141.947 44.7626 141.636 44.4103 141.409 43.9535C141.183 43.4966 141.07 42.9546 141.07 42.3274C141.07 41.7002 141.183 41.1582 141.409 40.7014C141.636 40.2446 141.947 39.8922 142.342 39.6445C142.736 39.3967 143.187 39.2728 143.695 39.2728C144.202 39.2728 144.653 39.3967 145.048 39.6445C145.443 39.8922 145.753 40.2446 145.98 40.7014C146.206 41.1582 146.32 41.7002 146.32 42.3274ZM145.623 42.3274C145.623 41.8125 145.537 41.3779 145.364 41.0237C145.194 40.6695 144.963 40.4013 144.67 40.2194C144.38 40.0374 144.055 39.9464 143.695 39.9464C143.335 39.9464 143.008 40.0374 142.716 40.2194C142.426 40.4013 142.194 40.6695 142.022 41.0237C141.852 41.3779 141.767 41.8125 141.767 42.3274C141.767 42.8424 141.852 43.2769 142.022 43.6312C142.194 43.9854 142.426 44.2535 142.716 44.4355C143.008 44.6175 143.335 44.7084 143.695 44.7084C144.055 44.7084 144.38 44.6175 144.67 44.4355C144.963 44.2535 145.194 43.9854 145.364 43.6312C145.537 43.2769 145.623 42.8424 145.623 42.3274ZM147.53 39.3541H148.239V44.0348H148.297L151.549 39.3541H152.246V45.3008H151.526V40.6317H151.468L148.227 45.3008H147.53V39.3541ZM150.457 37.8674H151.096C151.096 38.181 150.988 38.4375 150.771 38.6369C150.554 38.8363 150.26 38.936 149.888 38.936C149.522 38.936 149.231 38.8363 149.014 38.6369C148.799 38.4375 148.692 38.181 148.692 37.8674H149.331C149.331 38.0184 149.372 38.151 149.455 38.2652C149.541 38.3794 149.685 38.4365 149.888 38.4365C150.091 38.4365 150.237 38.3794 150.324 38.2652C150.413 38.151 150.457 38.0184 150.457 37.8674ZM161.039 44.6155L160.958 46.7062H160.214V45.3008H159.796V44.6155H161.039ZM155.987 45.3008V39.3541H156.672V44.6387H159.738V39.3541H160.423V45.3008H155.987ZM162.127 45.3008V39.3541H165.716V39.9929H162.847V42.0022H165.53V42.641H162.847V44.662H165.762V45.3008H162.127ZM167.014 45.3008V39.3541H167.734V42.0022H170.905V39.3541H171.625V45.3008H170.905V42.641H167.734V45.3008H167.014ZM172.741 39.9929V39.3541H177.201V39.9929H175.331V45.3008H174.611V39.9929H172.741ZM178.313 45.3008V39.3541H180.322C180.789 39.3541 181.17 39.4383 181.466 39.6067C181.764 39.7732 181.985 39.9987 182.128 40.2833C182.271 40.5678 182.343 40.8853 182.343 41.2357C182.343 41.586 182.271 41.9045 182.128 42.191C181.987 42.4775 181.768 42.7059 181.472 42.8762C181.176 43.0446 180.796 43.1288 180.334 43.1288H178.893V42.49H180.31C180.63 42.49 180.886 42.4349 181.08 42.3245C181.273 42.2142 181.414 42.0651 181.501 41.8774C181.59 41.6877 181.635 41.4738 181.635 41.2357C181.635 40.9976 181.59 40.7846 181.501 40.5969C181.414 40.4091 181.273 40.262 181.077 40.1555C180.881 40.0471 180.622 39.9929 180.299 39.9929H179.033V45.3008H178.313Z" fill="#482C0C"/>
</svg>
