<svg width="66" height="54" viewBox="0 0 66 54" fill="none" xmlns="http://www.w3.org/2000/svg">
<g filter="url(#filter0_d_4110_127)">
<path d="M32.832 3.2C33.6427 3.66933 34.24 4.33067 34.624 5.184C35.0507 5.99466 35.264 6.89066 35.264 7.872C35.264 8.72533 35.0933 9.57866 34.752 10.432C34.4107 11.2853 33.9627 11.9893 33.408 12.544C28.544 12.6293 23.9573 12.8427 19.648 13.184C19.4347 14.08 18.9867 16.064 18.304 19.136C18.2187 19.52 17.9413 20.864 17.472 23.168C22.0373 22.784 25.6427 22.272 28.288 21.632C29.1413 22.144 29.7813 22.8267 30.208 23.68C30.6773 24.4907 30.912 25.3867 30.912 26.368C30.912 27.264 30.72 28.1173 30.336 28.928C29.9947 29.696 29.504 30.3147 28.864 30.784C28.0533 30.8693 27.2427 30.9333 26.432 30.976C25.664 31.0187 24.9173 31.0613 24.192 31.104L16.192 31.68C15.8507 33.856 15.5093 36.4373 15.168 39.424C14.784 42.624 14.4427 44.864 14.144 46.144C13.8453 47.3813 13.3547 48 12.672 48C11.6053 48 10.3893 47.6373 9.024 46.912C7.70133 46.144 6.54933 45.2693 5.568 44.288C4.62933 43.264 4.16 42.432 4.16 41.792C4.16 41.152 4.37333 39.744 4.8 37.568C5.26933 35.392 5.78133 33.0453 6.336 30.528C8.256 22.2507 9.38667 16.576 9.728 13.504L7.04 13.696C6.22933 13.2693 5.568 12.6507 5.056 11.84C4.58667 10.9867 4.352 10.0693 4.352 9.088C4.352 7.38133 5.01333 5.86667 6.336 4.544C12.1813 4.45866 17.2587 4.33066 21.568 4.16C25.92 3.98933 29.6747 3.66933 32.832 3.2Z" fill="#C63264"/>
</g>
<g filter="url(#filter1_d_4110_127)">
<path d="M49.297 19.136C49.6383 17.0027 49.809 15.296 49.809 14.016C49.809 13.12 49.7236 12.416 49.553 11.904C49.425 11.392 49.2543 11.136 49.041 11.136C48.401 11.136 47.6543 11.6693 46.801 12.736C45.9903 13.8027 45.2863 15.0827 44.689 16.576C44.1343 18.0267 43.857 19.328 43.857 20.48C43.857 21.9307 44.561 23.4027 45.969 24.896C47.4196 26.3467 49.5316 28.1387 52.305 30.272C54.3956 31.808 55.953 33.088 56.977 34.112C58.001 35.0933 58.5343 35.9893 58.577 36.8C58.6196 38.592 57.681 40.3627 55.761 42.112C53.841 43.8187 51.4303 45.2267 48.529 46.336C45.6703 47.4453 43.0036 48 40.529 48C38.609 48 36.625 47.5307 34.577 46.592C32.529 45.6107 30.8223 44.48 29.457 43.2C28.0916 41.8773 27.3876 40.7253 27.345 39.744C27.2596 37.8667 27.8783 36.352 29.201 35.2C30.5236 34.0053 32.2943 33.408 34.513 33.408C35.6223 33.408 36.753 33.5573 37.905 33.856C38.417 36.672 38.865 38.6987 39.249 39.936C41.7663 39.296 44.497 38.1867 47.441 36.608C37.9263 29.3973 33.169 23.7653 33.169 19.712C33.169 17.7493 33.8943 15.4027 35.345 12.672C36.7956 9.89866 38.7156 7.53066 41.105 5.568C43.4943 3.56266 46.0116 2.56 48.657 2.56C50.6196 2.56 52.5183 3.22133 54.353 4.544C56.1876 5.86667 57.681 7.488 58.833 9.408C59.985 11.328 60.561 13.12 60.561 14.784C60.561 16.4053 59.8996 17.7067 58.577 18.688C57.297 19.6267 55.697 20.096 53.777 20.096C52.2836 20.096 50.7903 19.776 49.297 19.136Z" fill="#C63264"/>
</g>
<defs>
<filter id="filter0_d_4110_127" x="1.16016" y="1.19995" width="39.104" height="52.8" filterUnits="userSpaceOnUse" color-interpolation-filters="sRGB">
<feFlood flood-opacity="0" result="BackgroundImageFix"/>
<feColorMatrix in="SourceAlpha" type="matrix" values="0 0 0 0 0 0 0 0 0 0 0 0 0 0 0 0 0 0 127 0" result="hardAlpha"/>
<feOffset dx="1" dy="2"/>
<feGaussianBlur stdDeviation="2"/>
<feComposite in2="hardAlpha" operator="out"/>
<feColorMatrix type="matrix" values="0 0 0 0 0 0 0 0 0 0 0 0 0 0 0 0 0 0 0.25 0"/>
<feBlend mode="normal" in2="BackgroundImageFix" result="effect1_dropShadow_4110_127"/>
<feBlend mode="normal" in="SourceGraphic" in2="effect1_dropShadow_4110_127" result="shape"/>
</filter>
<filter id="filter1_d_4110_127" x="24.2168" y="0.560059" width="41.3442" height="53.4399" filterUnits="userSpaceOnUse" color-interpolation-filters="sRGB">
<feFlood flood-opacity="0" result="BackgroundImageFix"/>
<feColorMatrix in="SourceAlpha" type="matrix" values="0 0 0 0 0 0 0 0 0 0 0 0 0 0 0 0 0 0 127 0" result="hardAlpha"/>
<feOffset dx="1" dy="2"/>
<feGaussianBlur stdDeviation="2"/>
<feComposite in2="hardAlpha" operator="out"/>
<feColorMatrix type="matrix" values="0 0 0 0 0 0 0 0 0 0 0 0 0 0 0 0 0 0 0.25 0"/>
<feBlend mode="normal" in2="BackgroundImageFix" result="effect1_dropShadow_4110_127"/>
<feBlend mode="normal" in="SourceGraphic" in2="effect1_dropShadow_4110_127" result="shape"/>
</filter>
</defs>
</svg>
