<svg width="64" height="65" viewBox="0 0 64 65" fill="none" xmlns="http://www.w3.org/2000/svg">
<path d="M9.23746 39.5669C9.23746 36.8627 11.4296 34.6706 14.1337 34.6706H60.2555C61.113 34.6706 61.5868 36.146 61.0171 36.787C59.965 37.9709 58.9983 39.6533 58.9983 41.8388C58.9983 44.1192 60.0508 45.882 61.1546 47.1038C61.7229 47.7328 61.2637 49.1404 60.416 49.1404H14.1337C11.4296 49.1404 9.23746 46.9483 9.23746 44.2441V39.5669Z" fill="#482C0C"/>
<path d="M36.4744 11.2633C36.4744 14.9997 33.7024 19.3817 28.1584 19.3817C22.6145 19.3817 19.8425 14.9997 19.8425 11.2633C19.8425 7.23512 22.4676 6.36085 25.313 6.44582C26.4808 6.48069 28.1584 7.36976 28.1584 7.36976C28.1584 7.36976 29.8361 6.48069 31.0039 6.44582C33.8493 6.36085 36.4744 7.20412 36.4744 11.2633Z" fill="#F7E1BE" stroke="#482C0C" stroke-width="1.63209" stroke-linecap="round" stroke-linejoin="round"/>
<path d="M30.6186 16.9561C31.4848 16.6211 33.3767 15.3068 34.0142 12.7288" stroke="#482C0C" stroke-width="1.63209" stroke-linecap="round" stroke-linejoin="round"/>
<path d="M28.3732 7.09953C26.6645 7.11566 25.1018 5.9568 24.6892 2.651C26.3171 3.28555 28.9684 2.98825 28.3732 7.09953Z" fill="#F7E1BE" stroke="#482C0C" stroke-width="1.63209" stroke-linecap="round" stroke-linejoin="round"/>
<path d="M28.401 7.04645C29.1633 6.09358 30.3067 3.14835 29.3192 1.00006" stroke="#482C0C" stroke-width="1.63209" stroke-linecap="round" stroke-linejoin="round"/>
<path d="M23.5851 12.3716C23.2294 11.7049 23.129 10.6053 23.4922 9.75982" stroke="#482C0C" stroke-width="1.63209" stroke-linecap="round" stroke-linejoin="round"/>
<path d="M4.62256 23.9955C4.62256 21.8479 6.36348 20.107 8.51102 20.107H54.867C54.867 20.107 51.2773 22.424 50.9036 26.8027C50.5298 31.1814 54.867 33.468 54.867 33.468H8.51103C6.36349 33.468 4.62256 31.7271 4.62256 29.5795V23.9955Z" fill="#F7E1BE"/>
<path fill-rule="evenodd" clip-rule="evenodd" d="M55.5724 21.1944C55.5719 21.1947 55.5713 21.1951 55.5707 21.1955L55.5582 21.2041C55.5416 21.2153 55.5132 21.2352 55.4743 21.2634C55.3965 21.32 55.2777 21.41 55.1306 21.5327C54.8353 21.7791 54.4324 22.152 54.0188 22.6454C53.189 23.6356 52.3527 25.0658 52.195 26.913C52.0498 28.6143 52.8065 29.9372 53.6956 30.8961C54.1385 31.3738 54.5956 31.7386 54.9424 31.9833C55.1146 32.1048 55.2562 32.1943 55.3507 32.2513C55.3978 32.2797 55.4329 32.2998 55.4538 32.3116C55.4642 32.3174 55.4711 32.3212 55.4742 32.3229L55.4731 32.3223L55.4723 32.3219C55.4734 32.3225 55.4745 32.323 55.4755 32.3236C56 32.6025 56.268 33.2024 56.1252 33.7794C55.982 34.3579 55.4629 34.7642 54.867 34.7642H8.51103C5.64765 34.7642 3.32641 32.4429 3.32641 29.5796V23.9955C3.32641 21.1321 5.64764 18.8109 8.51103 18.8109H54.867C55.4417 18.8109 55.9478 19.1893 56.1103 19.7406C56.2723 20.2903 56.054 20.8809 55.574 21.1933C55.5735 21.1937 55.573 21.194 55.5724 21.1944ZM53.1348 32.1719C54.0372 33.0306 54.867 33.468 54.867 33.468H8.51103C6.36349 33.468 4.62256 31.7271 4.62256 29.5796V23.9955C4.62256 21.8479 6.36349 20.107 8.51103 20.107H54.867C54.867 20.107 54.1867 20.5461 53.3876 21.4032C52.3511 22.515 51.1146 24.3301 50.9036 26.8027C50.6933 29.2662 51.9741 31.0674 53.1348 32.1719Z" fill="#482C0C"/>
<path d="M1.29617 54.2314C1.29617 52.0838 3.03709 50.3429 5.18463 50.3429H51.5406C51.5406 50.3429 48.2849 52.3784 47.7442 56.9384C47.2034 61.4984 51.5406 63.7039 51.5406 63.7039H5.18464C3.03709 63.7039 1.29617 61.963 1.29617 59.8154V54.2314Z" fill="#F7E1BE"/>
<path fill-rule="evenodd" clip-rule="evenodd" d="M52.2309 51.4399C52.2308 51.4399 52.231 51.4398 52.2309 51.4399C52.2302 51.4403 52.2295 51.4408 52.2288 51.4412C52.2287 51.4412 52.2288 51.4412 52.2288 51.4412M50.0935 51.639C50.8737 50.7598 51.5406 50.3428 51.5406 50.3428H5.18463C3.03709 50.3428 1.29616 52.0838 1.29616 54.2313V59.8154C1.29616 61.9629 3.03709 63.7039 5.18463 63.7039H51.5406C51.5406 63.7039 50.6993 63.2761 49.804 62.4077C48.6664 61.3044 47.4416 59.49 47.7442 56.9383C48.0402 54.4421 49.1497 52.7024 50.0935 51.639ZM52.1291 62.549C52.1303 62.5496 52.1316 62.5503 52.1328 62.5509C52.1333 62.5512 52.1335 62.5513 52.1328 62.5509C52.6641 62.8238 52.9403 63.4247 52.801 64.0059C52.6613 64.5889 52.1401 65 51.5406 65H5.18463C2.32125 65 7.62939e-06 62.6788 7.62939e-06 59.8154V54.2313C7.62939e-06 51.3679 2.32124 49.0467 5.18463 49.0467H51.5406C52.1188 49.0467 52.627 49.4297 52.7865 49.9854C52.9452 50.5387 52.72 51.1301 52.2343 51.4378C52.2333 51.4384 52.2319 51.4392 52.2309 51.4399M52.132 62.5505C52.1294 62.5491 52.123 62.5457 52.113 62.5403C52.093 62.5294 52.059 62.5104 52.013 62.4833C51.9208 62.429 51.782 62.343 51.6134 62.2253C51.2738 61.9881 50.8276 61.6322 50.3998 61.1605C49.5499 60.223 48.8181 58.889 49.0313 57.091C49.2669 55.1037 50.0898 53.6797 50.8489 52.7507C51.2297 52.2846 51.5932 51.9451 51.8545 51.7268C51.9848 51.6179 52.0885 51.5402 52.1547 51.4927C52.1878 51.469 52.2113 51.453 52.224 51.4445L52.2309 51.4399L52.2296 51.4407L52.2288 51.4412M52.132 62.5505L52.1313 62.5502L52.1299 62.5494" fill="#482C0C"/>
<path d="M13.1204 38.5868H43.335" stroke="#F7E1BE" stroke-width="1.63209" stroke-linecap="round" stroke-linejoin="round"/>
<path d="M13.1205 41.9056H29.6137" stroke="#F7E1BE" stroke-width="1.63209" stroke-linecap="round" stroke-linejoin="round"/>
<path d="M40.2166 19.6623H45.5871V27.2024C45.5871 27.9295 44.7081 28.2936 44.194 27.7795L43.4788 27.0643C43.1601 26.7456 42.6435 26.7456 42.3248 27.0643L41.6096 27.7795C41.0955 28.2936 40.2166 27.9295 40.2166 27.2024V19.6623Z" fill="#482C0C"/>
<path d="M4.25006 53.7047H34.4647" stroke="#482C0C" stroke-width="1.63209" stroke-linecap="round" stroke-linejoin="round"/>
<path d="M4.25006 57.0234H20.7434" stroke="#482C0C" stroke-width="1.63209" stroke-linecap="round" stroke-linejoin="round"/>
<path d="M8.13081 23.5723H33.4944" stroke="#482C0C" stroke-width="1.63209" stroke-linecap="round" stroke-linejoin="round"/>
</svg>
