<svg width="69" height="46" viewBox="0 0 69 46" fill="none" xmlns="http://www.w3.org/2000/svg">
<g clip-path="url(#clip0_197_269)">
<path d="M12.7179 37.9105C13.9186 37.9105 14.8909 38.8794 14.8909 40.0759V43.8345C14.8909 45.031 13.9186 45.9999 12.7179 45.9999C11.5172 45.9999 10.5449 45.031 10.5449 43.8345V40.0759C10.5449 38.8794 11.5172 37.9105 12.7179 37.9105Z" fill="#482C0C"/>
<path d="M55.8383 37.9105C57.0389 37.9105 58.0112 38.8794 58.0112 40.0759V43.8345C58.0112 45.031 57.0389 45.9999 55.8383 45.9999C54.6376 45.9999 53.6653 45.031 53.6653 43.8345V40.0759C53.6653 38.8794 54.6376 37.9105 55.8383 37.9105Z" fill="#482C0C"/>
<path d="M62.4748 0.650146H6.52573C3.28222 0.650146 0.652832 3.27036 0.652832 6.50256V37.1237C0.652832 40.3559 3.28222 42.9761 6.52573 42.9761H62.4748C65.7184 42.9761 68.3477 40.3559 68.3477 37.1237V6.50256C68.3477 3.27036 65.7184 0.650146 62.4748 0.650146Z" fill="#F7E1BE" stroke="#482C0C" stroke-width="1.36183" stroke-linecap="round" stroke-linejoin="round"/>
<path d="M61.8089 3.13416H7.02781C4.86547 3.13416 3.11255 4.88097 3.11255 7.03577V36.9611C3.11255 39.1159 4.86547 40.8627 7.02781 40.8627H61.8089C63.9712 40.8627 65.7241 39.1159 65.7241 36.9611V7.03577C65.7241 4.88097 63.9712 3.13416 61.8089 3.13416Z" stroke="#482C0C" stroke-width="1.36183" stroke-linecap="round" stroke-linejoin="round"/>
<path d="M18.4016 28.8849C20.5495 28.8849 22.2908 27.1497 22.2908 25.0093C22.2908 22.8688 20.5495 21.1337 18.4016 21.1337C16.2537 21.1337 14.5125 22.8688 14.5125 25.0093C14.5125 27.1497 16.2537 28.8849 18.4016 28.8849Z" fill="#F7E1BE" stroke="#482C0C" stroke-width="1.36183"/>
<path d="M18.4019 20.958V3.23816" stroke="#482C0C" stroke-width="1.36183" stroke-linecap="round" stroke-linejoin="round"/>
<path d="M26.8652 28.8849C29.0132 28.8849 30.7544 27.1497 30.7544 25.0093C30.7544 22.8688 29.0132 21.1337 26.8652 21.1337C24.7173 21.1337 22.9761 22.8688 22.9761 25.0093C22.9761 27.1497 24.7173 28.8849 26.8652 28.8849Z" fill="#F7E1BE" stroke="#482C0C" stroke-width="1.36183"/>
<path d="M26.865 20.958V3.23816" stroke="#482C0C" stroke-width="1.36183" stroke-linecap="round" stroke-linejoin="round"/>
<path d="M35.3286 28.8849C37.4765 28.8849 39.2178 27.1497 39.2178 25.0093C39.2178 22.8688 37.4765 21.1337 35.3286 21.1337C33.1807 21.1337 31.4395 22.8688 31.4395 25.0093C31.4395 27.1497 33.1807 28.8849 35.3286 28.8849Z" fill="#F7E1BE" stroke="#482C0C" stroke-width="1.36183"/>
<path d="M35.3286 20.958V3.23816" stroke="#482C0C" stroke-width="1.36183" stroke-linecap="round" stroke-linejoin="round"/>
<path d="M54.4155 26.9602C56.9238 26.9602 58.9572 24.9339 58.9572 22.4343C58.9572 19.9347 56.9238 17.9084 54.4155 17.9084C51.9072 17.9084 49.8738 19.9347 49.8738 22.4343C49.8738 24.9339 51.9072 26.9602 54.4155 26.9602Z" fill="#482C0C"/>
<path d="M52.6539 18.4805L43.7598 3.13416" stroke="#482C0C" stroke-width="1.36183" stroke-linecap="round" stroke-linejoin="round"/>
</g>
<defs>
<clipPath id="clip0_197_269">
<rect width="69" height="46" fill="white"/>
</clipPath>
</defs>
</svg>
