<svg width="75" height="30" viewBox="0 0 75 30" fill="none" xmlns="http://www.w3.org/2000/svg">
<path d="M1.25358 7.44581C1.09333 4.36303 3.65848 1.78809 6.73707 2.01511C14.2784 2.57122 27.5327 3.43434 37.1532 3.43434C46.7736 3.43434 60.028 2.57122 67.5693 2.01511C70.6479 1.78809 73.2131 4.36303 73.0528 7.44581C72.9677 9.08335 72.9026 10.8076 72.9026 12.2534C72.9026 13.6991 72.9677 15.4234 73.0528 17.0609C73.2131 20.1437 70.6479 22.7187 67.5693 22.4916C60.028 21.9355 46.7736 21.0724 37.1532 21.0724C27.5327 21.0724 14.2784 21.9355 6.73707 22.4916C3.65849 22.7187 1.09333 20.1437 1.25358 17.0609C1.33871 15.4234 1.40375 13.6991 1.40375 12.2534C1.40375 10.8076 1.33871 9.08335 1.25358 7.44581Z" fill="#F7E1BE"/>
<path fill-rule="evenodd" clip-rule="evenodd" d="M6.82868 0.771929C14.3705 1.32807 27.5836 2.18779 37.1532 2.18779C46.7228 2.18779 59.9358 1.32807 67.4776 0.771929C71.3249 0.488229 74.4956 3.69884 74.2975 7.51037C74.2128 9.13948 74.149 10.8391 74.149 12.2532C74.149 13.6674 74.2128 15.367 74.2975 16.9961C74.4956 20.8076 71.3249 24.0182 67.4776 23.7345C59.9358 23.1784 46.7228 22.3187 37.1532 22.3187C27.5836 22.3187 14.3705 23.1784 6.82868 23.7345C2.98146 24.0182 -0.189329 20.8076 0.00880968 16.9961C0.0934978 15.367 0.157299 13.6674 0.157299 12.2532C0.157299 10.8391 0.0934978 9.13948 0.00880975 7.51037C-0.189329 3.69884 2.98146 0.488229 6.82868 0.771929ZM6.73702 2.01496C3.65844 1.78794 1.09328 4.36288 1.25354 7.44566C1.33866 9.08321 1.40371 10.8075 1.40371 12.2532C1.40371 13.699 1.33866 15.4232 1.25354 17.0608C1.09328 20.1436 3.65844 22.7185 6.73702 22.4915C14.2784 21.9354 27.5327 21.0723 37.1532 21.0723C46.7736 21.0723 60.0279 21.9354 67.5693 22.4915C70.6479 22.7185 73.213 20.1436 73.0528 17.0608C72.9677 15.4232 72.9026 13.699 72.9026 12.2532C72.9026 10.8075 72.9677 9.08321 73.0528 7.44566C73.213 4.36288 70.6479 1.78794 67.5693 2.01496C60.0279 2.57107 46.7736 3.4342 37.1532 3.4342C27.5327 3.4342 14.2784 2.57107 6.73702 2.01496Z" fill="#482C0C"/>
<path d="M31.2548 2.30833C31.3018 1.66033 31.8419 1.16205 32.4916 1.16205H43.9704C44.6201 1.16205 45.1602 1.66033 45.2071 2.30833C45.3607 4.42872 45.6652 9.04392 45.6652 12.3018C45.6652 15.5597 45.3607 20.1749 45.2071 22.2953C45.1602 22.9433 44.6201 23.4416 43.9704 23.4416H32.4916C31.8419 23.4416 31.3018 22.9433 31.2548 22.2953C31.1012 20.1749 30.7967 15.5597 30.7967 12.3018C30.7967 9.04392 31.1012 4.42872 31.2548 2.30833Z" fill="#482C0C"/>
<path d="M35.2319 18.0199H40.8674V27.9993L38.0496 25.1816L35.2319 27.9993V18.0199Z" fill="#F7E1BE"/>
<path fill-rule="evenodd" clip-rule="evenodd" d="M33.9855 18.0198C33.9855 17.3315 34.5435 16.7734 35.2319 16.7734H40.8673C41.5557 16.7734 42.1137 17.3315 42.1137 18.0198V27.9993C42.1137 28.5034 41.8101 28.9579 41.3443 29.1508C40.8786 29.3437 40.3425 29.2371 39.986 28.8806L38.0496 26.9442L36.1132 28.8806C35.7568 29.2371 35.2207 29.3437 34.7549 29.1508C34.2892 28.9579 33.9855 28.5034 33.9855 27.9993V18.0198ZM38.0496 25.1816L40.8673 27.9993V18.0198H35.2319V27.9993L38.0496 25.1816Z" fill="#482C0C"/>
<path d="M44.6514 15.6758C44.6514 16.4841 43.7051 16.9195 43.4326 17.632C43.1559 18.3556 43.549 19.3544 43.0454 19.925C42.4348 20.6168 41.3395 20.3791 40.4843 20.7571C39.6907 21.108 39.1508 22.0998 38.2273 22.0998C37.3039 22.0998 36.764 21.108 35.9704 20.7571C35.1152 20.3791 34.0199 20.6168 33.4093 19.925C32.9057 19.3544 33.2988 18.3556 33.0221 17.632C32.7496 16.9195 31.8033 16.4841 31.8033 15.6758C31.8033 14.8675 32.7496 14.4321 33.0221 13.7196C33.2677 13.0774 32.8164 12.1467 33.2432 11.6226C33.8108 10.9254 34.5218 11.1465 35.3313 10.737C36.2015 10.2968 37.1854 9.25177 38.2273 9.25177C39.2692 9.25177 40.2532 10.2968 41.1234 10.737C41.9329 11.1465 42.6439 10.9254 43.2115 11.6226C43.6383 12.1467 43.187 13.0774 43.4326 13.7196C43.7051 14.4321 44.6514 14.8675 44.6514 15.6758Z" fill="#F7E1BE"/>
<path fill-rule="evenodd" clip-rule="evenodd" d="M36.3592 10.8316C36.1253 10.9935 35.8709 11.1624 35.6126 11.2931C35.2141 11.4947 34.8075 11.5794 34.5205 11.6392C34.4534 11.6532 34.3929 11.6658 34.3405 11.6783C34.052 11.7467 33.8863 11.8197 33.7264 12.016C33.6916 12.0588 33.6547 12.1664 33.6861 12.5795C33.6887 12.6137 33.6918 12.6507 33.695 12.6897C33.7074 12.8397 33.7224 13.0207 33.7234 13.191C33.7248 13.4125 33.705 13.6787 33.6042 13.9422C33.5016 14.2104 33.3442 14.4313 33.197 14.6093C33.0995 14.7271 32.9833 14.8523 32.8842 14.9589C32.8432 15.0031 32.8051 15.044 32.7725 15.08C32.5041 15.3765 32.4265 15.5299 32.4265 15.6758C32.4265 15.8217 32.5041 15.9751 32.7725 16.2715C32.8051 16.3075 32.8432 16.3485 32.8842 16.3927C32.9833 16.4993 33.0995 16.6244 33.197 16.7423C33.3442 16.9203 33.5016 17.1412 33.6042 17.4093C33.7068 17.6778 33.7396 17.95 33.751 18.185C33.759 18.3505 33.757 18.5299 33.7552 18.6835C33.7545 18.7386 33.7539 18.7903 33.7538 18.837C33.7531 19.2637 33.7983 19.4239 33.8766 19.5126C34.0271 19.6832 34.2576 19.7719 34.6981 19.8435C34.7692 19.8551 34.849 19.8663 34.9352 19.8783C35.3067 19.9304 35.7968 19.999 36.2224 20.1871C36.493 20.3068 36.7245 20.4729 36.919 20.6296C37.0214 20.7122 37.1482 20.8221 37.261 20.9198C37.3329 20.9821 37.399 21.0394 37.4495 21.0816C37.7856 21.3621 38.0023 21.4766 38.2274 21.4766C38.4524 21.4766 38.6691 21.3621 39.0052 21.0816C39.0557 21.0394 39.1219 20.9821 39.1937 20.9198C39.3065 20.8221 39.4333 20.7122 39.5357 20.6296C39.7302 20.4729 39.9617 20.3068 40.2323 20.1871C40.6579 19.999 41.148 19.9304 41.5195 19.8783C41.6057 19.8663 41.6855 19.8551 41.7566 19.8435C42.1971 19.7719 42.4276 19.6832 42.5781 19.5126C42.6564 19.4239 42.7016 19.2637 42.7009 18.837C42.7008 18.7903 42.7002 18.7386 42.6995 18.6835C42.6977 18.5299 42.6957 18.3505 42.7037 18.185C42.7151 17.95 42.7479 17.6778 42.8505 17.4093C42.9531 17.1412 43.1105 16.9203 43.2577 16.7423C43.3552 16.6244 43.4715 16.4993 43.5705 16.3927C43.6115 16.3485 43.6496 16.3075 43.6822 16.2715C43.9506 15.9751 44.0282 15.8217 44.0282 15.6758C44.0282 15.5299 43.9506 15.3765 43.6822 15.08C43.6496 15.044 43.6115 15.0031 43.5705 14.9589C43.4715 14.8523 43.3552 14.7271 43.2577 14.6093C43.1105 14.4313 42.9531 14.2104 42.8505 13.9422C42.7498 13.6787 42.7299 13.4125 42.7313 13.191C42.7323 13.0207 42.7473 12.8397 42.7597 12.6897C42.7629 12.6506 42.766 12.6137 42.7686 12.5795C42.8 12.1664 42.7631 12.0588 42.7283 12.016C42.5684 11.8197 42.4027 11.7467 42.1142 11.6783C42.0619 11.6658 42.0013 11.6532 41.9342 11.6392C41.6473 11.5794 41.2406 11.4947 40.8421 11.2931C40.5838 11.1624 40.3294 10.9935 40.0955 10.8316C40.0179 10.7778 39.9431 10.7253 39.8699 10.6738C39.7109 10.5621 39.559 10.4554 39.3994 10.3513C38.9262 10.0427 38.5527 9.87495 38.2274 9.87495C37.902 9.87495 37.5285 10.0427 37.0553 10.3513C36.8957 10.4554 36.7438 10.5621 36.5848 10.6738C36.5116 10.7253 36.4368 10.7778 36.3592 10.8316ZM36.3745 9.30726C36.8714 8.98325 37.5108 8.62854 38.2274 8.62854C38.9439 8.62854 39.5833 8.98325 40.0802 9.30726C40.2585 9.42353 40.4397 9.55082 40.6068 9.66822C40.6757 9.71659 40.7422 9.76328 40.8051 9.80683C41.033 9.96464 41.228 10.0915 41.4048 10.1809C41.6429 10.3014 41.8464 10.3447 42.1117 10.4011C42.2004 10.42 42.296 10.4404 42.4021 10.4655C42.8133 10.5632 43.287 10.7282 43.6948 11.2291C44.0849 11.7081 44.038 12.3243 44.0118 12.6691L44.0114 12.674C44.0074 12.727 44.0033 12.7762 43.9995 12.8228C43.9879 12.9641 43.9783 13.0805 43.9776 13.1984C43.9768 13.3484 43.9927 13.4393 44.0147 13.497C44.0484 13.5851 44.1114 13.6858 44.2183 13.815C44.2929 13.9053 44.3659 13.9837 44.4508 14.0749C44.4981 14.1257 44.5491 14.1805 44.6062 14.2435C44.879 14.5449 45.2746 15.0133 45.2746 15.6758C45.2746 16.3382 44.879 16.8067 44.6062 17.1081C44.5491 17.1711 44.4981 17.2259 44.4508 17.2767C44.3659 17.3679 44.2929 17.4462 44.2183 17.5365C44.1114 17.6658 44.0484 17.7665 44.0147 17.8546C43.979 17.948 43.9571 18.072 43.9486 18.2455C43.9425 18.3713 43.9439 18.491 43.9456 18.6293C43.9463 18.693 43.9471 18.7607 43.9473 18.8347C43.948 19.231 43.938 19.8555 43.5126 20.3374C43.0526 20.8586 42.4301 20.9968 41.9566 21.0738C41.8279 21.0947 41.7097 21.1118 41.5999 21.1276C41.2521 21.1778 40.9878 21.2159 40.7363 21.3271C40.6101 21.3829 40.4765 21.4723 40.3177 21.6002C40.2161 21.6821 40.1376 21.7507 40.0513 21.8262C39.98 21.8885 39.9033 21.9555 39.8039 22.0385C39.4408 22.3416 38.9258 22.723 38.2274 22.723C37.5289 22.723 37.014 22.3416 36.6508 22.0385C36.5514 21.9555 36.4747 21.8885 36.4034 21.8262C36.3171 21.7507 36.2386 21.6821 36.137 21.6002C35.9782 21.4723 35.8446 21.3829 35.7184 21.3271C35.4669 21.2159 35.2026 21.1778 34.8548 21.1276C34.745 21.1118 34.6268 21.0947 34.4981 21.0738C34.0246 20.9968 33.4021 20.8586 32.9421 20.3374C32.5167 19.8555 32.5067 19.231 32.5074 18.8347C32.5076 18.7607 32.5084 18.693 32.5091 18.6293C32.5108 18.491 32.5122 18.3713 32.5061 18.2455C32.4976 18.072 32.4757 17.948 32.44 17.8546C32.4063 17.7665 32.3433 17.6658 32.2364 17.5365C32.1618 17.4462 32.0888 17.3679 32.0039 17.2767C31.9566 17.2259 31.9056 17.1711 31.8485 17.108C31.5757 16.8067 31.1801 16.3382 31.1801 15.6758C31.1801 15.0133 31.5757 14.5449 31.8485 14.2435C31.9056 14.1805 31.9566 14.1257 32.0039 14.0749C32.0888 13.9837 32.1618 13.9053 32.2364 13.815C32.3433 13.6858 32.4063 13.5851 32.44 13.497C32.462 13.4393 32.4779 13.3484 32.4771 13.1984C32.4764 13.0805 32.4668 12.9641 32.4552 12.8228C32.4514 12.7762 32.4473 12.7269 32.4433 12.674L32.4429 12.6691C32.4167 12.3243 32.3698 11.7081 32.7599 11.2291C33.1677 10.7282 33.6414 10.5632 34.0526 10.4655C34.1587 10.4404 34.2543 10.42 34.343 10.4011C34.6083 10.3447 34.8118 10.3014 35.0499 10.1809C35.2267 10.0915 35.4217 9.96464 35.6496 9.80683C35.7125 9.76328 35.779 9.71658 35.8479 9.66821C36.015 9.55081 36.1962 9.42353 36.3745 9.30726Z" fill="#482C0C"/>
<path fill-rule="evenodd" clip-rule="evenodd" d="M41.9862 15.6757C41.9862 17.7521 40.3201 19.4626 38.2315 19.4626C36.1428 19.4626 34.4767 17.7521 34.4767 15.6757C34.4767 13.5992 36.1428 11.8887 38.2315 11.8887C40.3201 11.8887 41.9862 13.5992 41.9862 15.6757ZM38.2315 18.2162C39.6168 18.2162 40.7398 17.0788 40.7398 15.6757C40.7398 14.2726 39.6168 13.1351 38.2315 13.1351C36.8461 13.1351 35.7231 14.2726 35.7231 15.6757C35.7231 17.0788 36.8461 18.2162 38.2315 18.2162Z" fill="#482C0C"/>
<path fill-rule="evenodd" clip-rule="evenodd" d="M63.2132 13.2051C62.869 13.2051 62.59 12.9261 62.59 12.5819C62.59 9.66916 62.3862 4.75986 62.0835 2.10274C62.0446 1.76077 62.2902 1.45196 62.6322 1.413C62.9742 1.37404 63.283 1.61969 63.3219 1.96166C63.6318 4.68151 63.8364 9.64131 63.8364 12.5819C63.8364 12.9261 63.5574 13.2051 63.2132 13.2051Z" fill="#482C0C"/>
<path fill-rule="evenodd" clip-rule="evenodd" d="M58.8231 9.18951C58.479 9.18951 58.1999 8.9105 58.1999 8.56631C58.1999 5.98605 57.9996 4.28516 57.698 2.47505C57.6414 2.13555 57.8707 1.81446 58.2102 1.75787C58.5497 1.70129 58.8708 1.93064 58.9274 2.27014C59.2383 4.13542 59.4464 5.90574 59.4464 8.56631C59.4464 8.9105 59.1673 9.18951 58.8231 9.18951Z" fill="#482C0C"/>
<path fill-rule="evenodd" clip-rule="evenodd" d="M48.0012 9.52979C47.657 9.52979 47.378 9.25077 47.378 8.90658C47.378 6.32632 47.1777 4.62544 46.876 2.81532C46.8194 2.47582 47.0488 2.15473 47.3883 2.09814C47.7278 2.04156 48.0489 2.27091 48.1054 2.61041C48.4163 4.47569 48.6244 6.24601 48.6244 8.90658C48.6244 9.25077 48.3454 9.52979 48.0012 9.52979Z" fill="#482C0C"/>
<path fill-rule="evenodd" clip-rule="evenodd" d="M28.3672 14.8542C28.7114 14.8542 28.9904 15.1332 28.9904 15.4774C28.9904 18.0577 29.1907 19.7585 29.4924 21.5687C29.549 21.9082 29.3196 22.2292 28.9801 22.2858C28.6406 22.3424 28.3195 22.1131 28.2629 21.7736C27.9521 19.9083 27.744 18.138 27.744 15.4774C27.744 15.1332 28.023 14.8542 28.3672 14.8542Z" fill="#482C0C"/>
<path fill-rule="evenodd" clip-rule="evenodd" d="M14.493 8.98798C14.8372 8.98798 15.1163 8.70896 15.1163 8.36477C15.1163 5.78451 15.3166 4.08363 15.6182 2.27351C15.6748 1.93401 15.4455 1.61292 15.106 1.55633C14.7665 1.49975 14.4454 1.7291 14.3888 2.0686C14.0779 3.93388 13.8698 5.7042 13.8698 8.36477C13.8698 8.70896 14.1489 8.98798 14.493 8.98798Z" fill="#482C0C"/>
<path fill-rule="evenodd" clip-rule="evenodd" d="M10.2604 13.4902C10.6046 13.4902 10.8836 13.7693 10.8836 14.1134C10.8836 16.9126 11.0523 19.5611 11.5538 22.2696C11.6165 22.608 11.3929 22.9332 11.0545 22.9959C10.7161 23.0585 10.3909 22.835 10.3283 22.4965C9.80888 19.6919 9.63721 16.9635 9.63721 14.1134C9.63721 13.7693 9.91622 13.4902 10.2604 13.4902Z" fill="#482C0C"/>
</svg>
