<svg width="67" height="49" viewBox="0 0 67 49" fill="none" xmlns="http://www.w3.org/2000/svg">
<path d="M4.34165 5.70143C4.34165 5.00999 4.90218 4.44946 5.59362 4.44946H65.7263C66.4177 4.44946 66.9783 5.00999 66.9783 5.70143V44.4871C66.9783 45.1785 66.4177 45.7391 65.7263 45.7391H5.59362C4.90218 45.7391 4.34165 45.1785 4.34165 44.4871V5.70143Z" fill="#482C0C"/>
<path d="M1.252 2.50398C1.252 1.81254 1.81252 1.25201 2.50396 1.25201H62.6366C63.3281 1.25201 63.8886 1.81254 63.8886 2.50398V41.2897C63.8886 41.9811 63.3281 42.5416 62.6366 42.5416H2.50396C1.81252 42.5416 1.252 41.9811 1.252 41.2897V2.50398Z" fill="#F7E1BE"/>
<path fill-rule="evenodd" clip-rule="evenodd" d="M2.50393 0H62.6366C64.0195 0 65.1405 1.12105 65.1405 2.50393V41.2896C65.1405 42.6725 64.0195 43.7935 62.6366 43.7935H2.50393C1.12105 43.7935 0 42.6725 0 41.2896V2.50393C0 1.12105 1.12104 0 2.50393 0ZM2.50393 1.25196C1.81249 1.25196 1.25196 1.81249 1.25196 2.50393V41.2896C1.25196 41.9811 1.81249 42.5416 2.50393 42.5416H62.6366C63.3281 42.5416 63.8886 41.9811 63.8886 41.2896V2.50393C63.8886 1.81249 63.3281 1.25196 62.6366 1.25196H2.50393Z" fill="#482C0C"/>
<path fill-rule="evenodd" clip-rule="evenodd" d="M10.8783 16.1627C10.8783 15.817 11.1586 15.5367 11.5043 15.5367H53.6366C53.9823 15.5367 54.2625 15.817 54.2625 16.1627C54.2625 16.5084 53.9823 16.7887 53.6366 16.7887H11.5043C11.1586 16.7887 10.8783 16.5084 10.8783 16.1627Z" fill="#482C0C"/>
<path fill-rule="evenodd" clip-rule="evenodd" d="M23.7987 9.11664C23.7987 8.77092 24.079 8.49066 24.4247 8.49066H39.5923C39.9381 8.49066 40.2183 8.77092 40.2183 9.11664C40.2183 9.46236 39.9381 9.74263 39.5923 9.74263H24.4247C24.079 9.74263 23.7987 9.46236 23.7987 9.11664Z" fill="#482C0C"/>
<path fill-rule="evenodd" clip-rule="evenodd" d="M10.8783 19.3929C10.8783 19.0472 11.1586 18.7669 11.5043 18.7669H53.6366C53.9823 18.7669 54.2625 19.0472 54.2625 19.3929C54.2625 19.7386 53.9823 20.0189 53.6366 20.0189H11.5043C11.1586 20.0189 10.8783 19.7386 10.8783 19.3929Z" fill="#482C0C"/>
<path fill-rule="evenodd" clip-rule="evenodd" d="M10.8783 23.1968C10.8783 22.8511 11.1586 22.5708 11.5043 22.5708H53.6366C53.9823 22.5708 54.2625 22.8511 54.2625 23.1968C54.2625 23.5425 53.9823 23.8228 53.6366 23.8228H11.5043C11.1586 23.8228 10.8783 23.5425 10.8783 23.1968Z" fill="#482C0C"/>
<path fill-rule="evenodd" clip-rule="evenodd" d="M10.8783 26.9887C10.8783 26.643 11.1586 26.3628 11.5043 26.3628H53.6366C53.9823 26.3628 54.2625 26.643 54.2625 26.9887C54.2625 27.3345 53.9823 27.6147 53.6366 27.6147H11.5043C11.1586 27.6147 10.8783 27.3345 10.8783 26.9887Z" fill="#482C0C"/>
<path fill-rule="evenodd" clip-rule="evenodd" d="M10.8783 30.4995C10.8783 30.1538 11.1586 29.8735 11.5043 29.8735H31.166C31.5117 29.8735 31.792 30.1538 31.792 30.4995C31.792 30.8452 31.5117 31.1255 31.166 31.1255H11.5043C11.1586 31.1255 10.8783 30.8452 10.8783 30.4995Z" fill="#482C0C"/>
<path d="M50.0487 35.3464H56.7899V47.2838L53.4193 43.9133L50.0487 47.2838V35.3464Z" fill="#F7E1BE"/>
<path fill-rule="evenodd" clip-rule="evenodd" d="M48.7968 35.3464C48.7968 34.6549 49.3573 34.0944 50.0488 34.0944H56.7899C57.4814 34.0944 58.0419 34.6549 58.0419 35.3464V47.2839C58.0419 47.7902 57.7368 48.2467 57.269 48.4405C56.8012 48.6343 56.2627 48.5272 55.9046 48.1691L53.4193 45.6838L50.934 48.1691C50.576 48.5272 50.0375 48.6343 49.5696 48.4405C49.1018 48.2467 48.7968 47.7902 48.7968 47.2839V35.3464ZM53.4193 43.9133L56.7899 47.2839V35.3464H50.0488V47.2839L53.4193 43.9133Z" fill="#482C0C"/>
<path d="M59.1136 35.7302C59.1136 38.794 56.6614 41.2776 53.6364 41.2776C50.6114 41.2776 48.1592 38.794 48.1592 35.7302C48.1592 32.6665 50.6114 30.1828 53.6364 30.1828C56.6614 30.1828 59.1136 32.6665 59.1136 35.7302Z" fill="#F7E1BE"/>
<path fill-rule="evenodd" clip-rule="evenodd" d="M60.3656 35.7302C60.3656 39.4703 57.3678 42.5296 53.6364 42.5296C49.905 42.5296 46.9073 39.4703 46.9073 35.7302C46.9073 31.9901 49.905 28.9308 53.6364 28.9308C57.3678 28.9308 60.3656 31.9901 60.3656 35.7302ZM53.6364 41.2776C56.6614 41.2776 59.1136 38.794 59.1136 35.7302C59.1136 32.6665 56.6614 30.1828 53.6364 30.1828C50.6114 30.1828 48.1592 32.6665 48.1592 35.7302C48.1592 38.794 50.6114 41.2776 53.6364 41.2776Z" fill="#482C0C"/>
<path fill-rule="evenodd" clip-rule="evenodd" d="M57.8137 35.7301C57.8137 38.0425 55.9586 39.9444 53.6369 39.9444C51.3151 39.9444 49.4601 38.0425 49.4601 35.7301C49.4601 33.4176 51.3151 31.5157 53.6369 31.5157C55.9586 31.5157 57.8137 33.4176 57.8137 35.7301ZM53.6369 38.6924C55.2522 38.6924 56.5617 37.3661 56.5617 35.7301C56.5617 34.094 55.2522 32.7677 53.6369 32.7677C52.0215 32.7677 50.712 34.094 50.712 35.7301C50.712 37.3661 52.0215 38.6924 53.6369 38.6924Z" fill="#482C0C"/>
</svg>
