<svg width="78" height="57" viewBox="0 0 78 57" fill="none" xmlns="http://www.w3.org/2000/svg">
<path d="M5.11017 15.4679C4.85648 14.7157 5.26239 13.9061 6.02347 13.6554L37.2713 3.28129C38.0324 3.03054 38.8515 3.43175 39.1052 4.18401L52.7974 44.4838C53.0511 45.236 52.6452 46.0456 51.8841 46.2964L20.6362 56.6704C19.8752 56.9212 19.0561 56.52 18.8024 55.7677L5.11017 15.4679Z" fill="#482C0C"/>
<path d="M1.52961 13.6983C1.27591 12.946 1.68182 12.1365 2.4429 11.8857L33.6907 1.51164C34.4518 1.26089 35.2709 1.66209 35.5246 2.41436L49.2168 42.7141C49.4705 43.4664 49.0646 44.276 48.3035 44.5267L17.0557 54.9008C16.2946 55.1515 15.4755 54.7503 15.2218 53.9981L1.52961 13.6983Z" fill="#F7E1BE"/>
<path fill-rule="evenodd" clip-rule="evenodd" d="M1.97883 10.5244L33.2267 0.150358C34.7416 -0.351151 36.387 0.451263 36.9016 1.95579L50.5938 42.2556C51.1012 43.7529 50.2894 45.3792 48.7672 45.8879L17.5194 56.262C16.0045 56.7635 14.3591 55.9611 13.8445 54.4565L0.15223 14.1496C-0.355158 12.6522 0.456662 11.0259 1.97883 10.5173V10.5244ZM2.43547 11.8785C1.67439 12.1292 1.26848 12.946 1.52218 13.6911L15.2144 53.9909C15.4681 54.7431 16.2944 55.1443 17.0482 54.8936L48.2961 44.5195C49.0572 44.2688 49.4631 43.452 49.2094 42.7069L35.5244 2.40715C35.2707 1.65488 34.4444 1.25368 33.6906 1.50443L2.43547 11.8785Z" fill="#482C0C"/>
<path fill-rule="evenodd" clip-rule="evenodd" d="M10.8872 19.5517C10.7567 19.1791 10.9669 18.7708 11.3438 18.6418L29.9577 12.4661C30.3346 12.3371 30.7478 12.5449 30.8783 12.9174C31.0087 13.29 30.7985 13.6984 30.4216 13.8273L11.8077 20.003C11.4308 20.132 11.0177 19.9242 10.8872 19.5517Z" fill="#482C0C"/>
<path fill-rule="evenodd" clip-rule="evenodd" d="M12.3659 23.9147C12.2355 23.5422 12.4457 23.1338 12.8226 23.0048L31.4365 16.8291C31.8134 16.7002 32.2266 16.9079 32.357 17.2805C32.4875 17.653 32.2773 18.0614 31.9004 18.1904L13.2865 24.3661C12.9096 24.495 12.4964 24.2873 12.3659 23.9147Z" fill="#482C0C"/>
<path fill-rule="evenodd" clip-rule="evenodd" d="M13.8518 28.2851C13.7213 27.9125 13.9315 27.5042 14.3084 27.3752L32.9223 21.1995C33.2992 21.0705 33.7124 21.2783 33.8429 21.6508C33.9733 22.0234 33.7631 22.4318 33.3862 22.5607L14.7723 28.7364C14.3954 28.8654 13.9823 28.6576 13.8518 28.2851Z" fill="#482C0C"/>
<path fill-rule="evenodd" clip-rule="evenodd" d="M15.3376 32.6553C15.2072 32.2828 15.4174 31.8744 15.7943 31.7454L34.4082 25.5697C34.7851 25.4408 35.1982 25.6485 35.3287 26.0211C35.4592 26.3936 35.249 26.802 34.8721 26.931L16.2582 33.1067C15.8813 33.2356 15.4681 33.0279 15.3376 32.6553Z" fill="#482C0C"/>
<path fill-rule="evenodd" clip-rule="evenodd" d="M16.8237 37.0256C16.6932 36.653 16.9034 36.2446 17.2804 36.1157L35.8942 29.94C36.2712 29.811 36.6843 30.0188 36.8148 30.3913C36.9453 30.7639 36.7351 31.1722 36.3581 31.3012L17.7443 37.4769C17.3673 37.6059 16.9542 37.3981 16.8237 37.0256Z" fill="#482C0C"/>
<path fill-rule="evenodd" clip-rule="evenodd" d="M27.196 38.437C27.3265 38.8095 27.1163 39.2179 26.7394 39.3468L19.2228 41.8472C18.8459 41.9762 18.4327 41.7684 18.3022 41.3959C18.1718 41.0233 18.382 40.6149 18.7589 40.486L26.2755 37.9856C26.6524 37.8567 27.0655 38.0644 27.196 38.437Z" fill="#482C0C"/>
<path d="M41.8958 4.16249C42.106 3.3959 42.9033 2.95171 43.6789 3.15948L75.4776 11.7424C76.2532 11.9502 76.7026 12.7383 76.4924 13.5049L65.1632 54.5139C64.953 55.2805 64.1556 55.7247 63.3801 55.5169L31.5813 46.934C30.8058 46.7262 30.3564 45.9381 30.5666 45.1715L41.8958 4.16249Z" fill="#F7E1BE"/>
<path fill-rule="evenodd" clip-rule="evenodd" d="M44.063 1.77676L75.8617 10.3597C77.4056 10.7752 78.3189 12.3514 77.8985 13.8774L66.5693 54.8865C66.1489 56.4125 64.5542 57.3152 63.0103 56.8997L31.2116 48.3167C29.6677 47.9012 28.7544 46.325 29.182 44.799L40.4968 3.78279C40.9172 2.25677 42.5118 1.35406 44.0557 1.77676H44.063ZM43.6788 3.15949C42.9032 2.95172 42.1059 3.40308 41.8957 4.1625L30.5665 45.1716C30.3563 45.9381 30.8129 46.7262 31.5813 46.934L63.38 55.5169C64.1555 55.7247 64.9529 55.2734 65.1631 54.5139L76.4923 13.5049C76.7025 12.7383 76.2459 11.9502 75.4775 11.7424L43.6788 3.15949Z" fill="#482C0C"/>
<path d="M63.0249 26.9739C63.6555 26.6157 63.8802 25.8205 63.5178 25.1972C63.1553 24.5739 62.3508 24.3589 61.7202 24.71L53.9789 29.0803C53.283 29.4743 52.3987 29.2307 52.0001 28.5429L49.5211 24.2515C49.1587 23.6282 48.3541 23.4132 47.7235 23.7643C47.0929 24.1225 46.8754 24.9178 47.2306 25.5411L50.4272 31.072L51.7319 33.3288L54.0151 32.0392L63.0176 26.9596L63.0249 26.9739Z" fill="#F7E1BE"/>
<path fill-rule="evenodd" clip-rule="evenodd" d="M53.254 27.8408L60.9953 23.4705C62.3218 22.7182 64.0106 23.1768 64.7717 24.4879C65.5328 25.7989 65.0689 27.4683 63.7424 28.2205L54.8269 33.2499C54.8269 33.2499 54.7689 33.2857 54.7399 33.3001L52.4567 34.5897C52.1088 34.7831 51.7173 34.8261 51.3622 34.733C50.9998 34.6398 50.6736 34.4034 50.4706 34.0595L49.1659 31.8027C49.1659 31.8027 49.1297 31.7454 49.1152 31.7096L45.9694 26.2575C45.2083 24.9464 45.6722 23.2771 46.9986 22.5248C48.3251 21.7725 50.014 22.2311 50.7751 23.5422L53.254 27.8336V27.8408ZM63.5105 25.2043C63.8729 25.8276 63.6482 26.6229 63.0176 26.9811L54.0151 32.0606L51.7318 33.3502L50.4271 31.0934L47.2306 25.5625C46.8682 24.9392 47.0929 24.144 47.7235 23.7857C48.3541 23.4275 49.1587 23.6496 49.5211 24.2729L52 28.5644C52.3987 29.2522 53.283 29.4886 53.9788 29.1017L61.7201 24.7314C62.3507 24.3732 63.1553 24.5953 63.5177 25.2186L63.5105 25.2043Z" fill="#482C0C"/>
</svg>
