<svg width="67" height="45" viewBox="0 0 67 45" fill="none" xmlns="http://www.w3.org/2000/svg">
<path d="M4.84378 7.74145C4.84378 6.14109 6.14113 4.84375 7.74148 4.84375H64.0806C65.6809 4.84375 66.9783 6.1411 66.9783 7.74145V41.6165C66.9783 43.2169 65.6809 44.5142 64.0806 44.5142H7.74148C6.14112 44.5142 4.84378 43.2169 4.84378 41.6165V7.74145Z" fill="#482C0C"/>
<path d="M1.44885 4.34649C1.44885 2.74614 2.7462 1.44879 4.34655 1.44879H60.6857C62.286 1.44879 63.5834 2.74614 63.5834 4.34649V38.2216C63.5834 39.8219 62.286 41.1193 60.6857 41.1193H4.34655C2.7462 41.1193 1.44885 39.8219 1.44885 38.2216V4.34649Z" fill="#F7E1BE"/>
<path fill-rule="evenodd" clip-rule="evenodd" d="M4.34655 0H60.6857C63.0862 0 65.0322 1.94602 65.0322 4.34655V38.2216C65.0322 40.6222 63.0862 42.5682 60.6857 42.5682H4.34655C1.94602 42.5682 0 40.6222 0 38.2216V4.34655C0 1.94602 1.94602 0 4.34655 0ZM4.34655 1.44885C2.7462 1.44885 1.44885 2.7462 1.44885 4.34655V38.2216C1.44885 39.822 2.74619 41.1193 4.34655 41.1193H60.6857C62.286 41.1193 63.5834 39.822 63.5834 38.2216V4.34655C63.5834 2.7462 62.286 1.44885 60.6857 1.44885H4.34655Z" fill="#482C0C"/>
<path fill-rule="evenodd" clip-rule="evenodd" d="M13.2887 15.5233C13.8164 14.4331 15.3693 14.4331 15.897 15.5233L16.9977 17.7975L19.2941 18.0582C20.508 18.196 21.0169 19.6819 20.1424 20.5349L18.2165 22.4136L18.6781 24.3064C18.983 25.5568 17.6279 26.5544 16.5246 25.8918L14.5928 24.7317L12.6611 25.8918C11.5578 26.5544 10.2027 25.5568 10.5076 24.3064L10.9692 22.4136L9.04327 20.5349C8.16881 19.6819 8.67771 18.196 9.89155 18.0582L12.188 17.7975L13.2887 15.5233ZM15.6936 18.4287L14.5928 16.1545L13.4921 18.4287C13.2757 18.8759 12.8451 19.181 12.3514 19.2371L10.055 19.4978L11.9809 21.3765C12.3476 21.7343 12.4982 22.2591 12.3768 22.7569L11.9152 24.6497L13.8469 23.4896C14.306 23.214 14.8797 23.214 15.3387 23.4896L17.2705 24.6497L16.8089 22.7569C16.6875 22.2591 16.8381 21.7343 17.2048 21.3765L19.1307 19.4978L16.8342 19.2371C16.3406 19.181 15.91 18.8759 15.6936 18.4287Z" fill="#482C0C"/>
<path fill-rule="evenodd" clip-rule="evenodd" d="M30.8197 15.5233C31.3473 14.4331 32.9003 14.4331 33.4279 15.5233L34.5286 17.7975L36.8251 18.0582C38.0389 18.196 38.5478 19.6819 37.6734 20.5349L35.7475 22.4136L36.209 24.3064C36.5139 25.5568 35.1589 26.5544 34.0555 25.8918L32.1238 24.7317L30.1921 25.8918C29.0887 26.5544 27.7336 25.5568 28.0386 24.3064L28.5001 22.4136L26.5742 20.5349C25.6998 19.6819 26.2087 18.196 27.4225 18.0582L29.719 17.7975L30.8197 15.5233ZM33.2245 18.4287L32.1238 16.1545L31.0231 18.4287C30.8066 18.8759 30.3761 19.181 29.8824 19.2371L27.5859 19.4978L29.5118 21.3765C29.8786 21.7343 30.0291 22.2591 29.9077 22.7569L29.4462 24.6497L31.3779 23.4896C31.8369 23.214 32.4106 23.214 32.8697 23.4896L34.8014 24.6497L34.3399 22.7569C34.2185 22.2591 34.369 21.7343 34.7357 21.3765L36.6617 19.4978L34.3652 19.2371C33.8715 19.181 33.441 18.8759 33.2245 18.4287Z" fill="#482C0C"/>
<path fill-rule="evenodd" clip-rule="evenodd" d="M48.3505 15.5233C48.8781 14.4331 50.4311 14.4331 50.9587 15.5233L52.0594 17.7975L54.3559 18.0582C55.5697 18.196 56.0787 19.6819 55.2042 20.5349L53.2783 22.4136L53.7399 24.3064C54.0448 25.5568 52.6897 26.5544 51.5863 25.8918L49.6546 24.7317L47.7229 25.8918C46.6195 26.5544 45.2645 25.5568 45.5694 24.3064L46.0309 22.4136L44.105 20.5349C43.2306 19.6819 43.7395 18.196 44.9533 18.0582L47.2498 17.7975L48.3505 15.5233ZM50.7553 18.4287L49.6546 16.1545L48.5539 18.4287C48.3374 18.8759 47.9069 19.181 47.4132 19.2371L45.1168 19.4978L47.0427 21.3765C47.4094 21.7343 47.5599 22.2591 47.4385 22.7569L46.977 24.6497L48.9087 23.4896C49.3678 23.214 49.9415 23.214 50.4005 23.4896L52.3323 24.6497L51.8707 22.7569C51.7493 22.2591 51.8998 21.7343 52.2666 21.3765L54.1925 19.4978L51.896 19.2371C51.4023 19.181 50.9718 18.8759 50.7553 18.4287Z" fill="#482C0C"/>
</svg>
