<svg width="75" height="42" viewBox="0 0 75 42" fill="none" xmlns="http://www.w3.org/2000/svg">
<g clip-path="url(#clip0_197_297)">
<path d="M38.4492 30.3638L53.6552 24.577V35.4817V35.4817V35.4817V35.4818V35.4818V35.4818V35.4819V35.4819V35.4819V35.482V35.482V35.482V35.4821V35.4821V35.4821V35.4822V35.4822V35.4823V35.4823V35.4824V35.4824V35.4825V35.4825V35.4826V35.4826V35.4827V35.4827V35.4827V35.4828V35.4828V35.4828V35.4828V35.4829V35.4829V35.4829V35.483V35.483V35.483V35.4831V35.4831V35.4831V35.4832V35.4832V35.4833V35.4833V35.4833V35.4834V35.4834V35.4834V35.4835V35.4835V35.4836V35.4836V35.4836V35.4837V35.4837V35.4838V35.4838V35.4838V35.4839V35.4839V35.484V35.484V35.4841V35.4841V35.4841V35.4842V35.4842V35.4843V35.4843V35.4844V35.4844V35.4845V35.4845V35.4845V35.4846V35.4846V35.4847V35.4847V35.4848V35.4848V35.4849V35.4849V35.485V35.485V35.4851V35.4851V35.4852V35.4852V35.4853V35.4853V35.4854V35.4854V35.4855V35.4856V35.4856V35.4857V35.4857V35.4858V35.4858V35.4859V35.4859V35.486V35.486V35.4861V35.4862V35.4862V35.4863V35.4863V35.4864V35.4865V35.4865V35.4866V35.4866V35.4867V35.4867V35.4868V35.4869V35.4869V35.487V35.487V35.4871V35.4872V35.4872V35.4873V35.4874V35.4874V35.4875V35.4875V35.4876V35.4877V35.4877V35.4878V35.4879V35.4879V35.488V35.4881V35.4881V35.4882V35.4883V35.4883V35.4884V35.4885V35.4885V35.4886V35.4887V35.4887V35.4888V35.4889V35.4889V35.489V35.4891V35.4891V35.4892V35.4893V35.4893V35.4894V35.4895V35.4896V35.4896V35.4897V35.4898V35.4898V35.4899V35.49V35.4901V35.4901V35.4902V35.4903V35.4904V35.4904V35.4905V35.4906V35.4906V35.4907V35.4908V35.4909V35.4909V35.491V35.4911V35.4912V35.4912V35.4913V35.4914V35.4915V35.4915V35.4916V35.4917V35.4918V35.4919V35.4919V35.492V35.4921V35.4922V35.4922V35.4923V35.4924V35.4925V35.4926V35.4926V35.4927V35.4928V35.4929V35.493V35.493V35.4931V35.4932V35.4933V35.4934V35.4934V35.4935V35.4936V35.4937V35.4938V35.4938V35.4939V35.494V35.4941V35.4942V35.4943V35.4943V35.4944V35.4945V35.4946V35.4947V35.4948V35.4948V35.4949V35.495V35.4951V35.4952V35.4953V35.4953V35.4954V35.4955V35.4956V35.4957V35.4958V35.4958V35.4959V35.496V35.4961V35.4962V35.4963V35.4964V35.4964V35.4965V35.4966V35.4967V35.4968V35.4969V35.497V35.497V35.4971V35.4972V35.4973V35.4974V35.4975V35.4976V35.4977V35.4977V35.4978V35.4979V35.498V35.4981V35.4982V35.4983V35.4984V35.4984V35.4985V35.4986V35.4987V35.4988V35.4989V35.499V35.4991V35.4992V35.4992V35.4993V35.4994V35.4995V35.4996V35.4997V35.4998V35.4999V35.5V35.5001V35.5001V35.5002V35.5003V35.5004V35.5005V35.5006V35.5007V35.5008V35.5009V35.501V35.501V35.5011V35.5012V35.5013V35.5014V35.5015V35.5016V35.5017V35.5018V35.5019V35.502V35.502V35.5021V35.5022V35.5023V35.5024V35.5025V35.5026V35.5027V35.5028V35.5029V35.503V35.503V35.5031V35.5032V35.5033V35.5034V35.5035V35.5036V35.5037V35.5038V35.5039V35.504V35.5041V35.5041V35.5042V35.5043V35.5044V35.5045V35.5046V35.5047V35.5048V35.5049V35.505V35.5051V35.5052V35.5053V35.5053V35.5054V35.5055V35.5056V35.5057V35.5058V35.5059V35.506V35.5061V35.5062V35.5063V35.5064V35.5064V35.5065V35.5066V35.5067V35.5068V35.5069V35.507V35.5071V35.5072V35.5073V35.5074V35.5075V35.5075V35.5076V35.5077V35.5078V35.5079V35.508V35.5081V35.5082V35.5083V35.5084V35.5085V35.5085V35.5086V35.5087V35.5088V35.5089V35.509V35.5091V35.5092V35.5093V35.5094V35.5095V35.5095V35.5096V35.5097V35.5098V35.5099V35.51V35.5101V35.5102V35.5103V35.5104V35.5104V35.5105V35.5106V35.5107V35.5108V35.5109V35.511V35.5111V35.5112V35.5112V35.5113V35.5114V35.5115V35.5116V35.5117V35.5118V35.5119V35.512V35.512V35.5121V35.5122V35.5123V35.5124V35.5125V35.5126V35.5127V35.5127V35.5128V35.5129V35.513V35.5131V35.5132V35.5133V35.5134V35.5134V35.5135V35.5136V35.5137V35.5138V35.5139V35.514V35.514V35.5141V35.5142V35.5143V35.5144V35.5145V35.5146V35.5146V35.5147V35.5148V35.5149V35.515V35.5151V35.5152V35.5152V35.5153V35.5154V35.5155V35.5156V35.5157V35.5157V35.5158V35.5159V35.516V35.5161V35.5161V35.5162V35.5163V35.5164V35.5165C53.6552 36.2085 53.2664 36.9348 52.414 37.6599C51.5637 38.3831 50.3039 39.0573 48.7034 39.6336C45.5066 40.7846 41.0571 41.5069 36.1174 41.5069C31.1775 41.5069 26.728 40.7863 23.5313 39.6362C21.9308 39.0603 20.6711 38.3863 19.8209 37.6629C18.9687 36.9377 18.5796 36.2105 18.5796 35.5165V35.5165V35.5165V35.5165V35.5164V35.5164V35.5164V35.5164V35.5164V35.5164V35.5164V35.5164V35.5164V35.5164V35.5163V35.5163V35.5163V35.5163V35.5163V35.5163V35.5163V35.5163V35.5163V35.5162V35.5162V35.5162V35.5162V35.5162V35.5162V35.5162V35.5162V35.5162V35.5162V35.5162V35.5161V35.5161V35.5161V35.5161V35.5161V35.5161V35.5161V35.5161V35.5161V35.516V35.516V35.516V35.516V35.516V35.516V35.516V35.516V35.516V35.5159V35.5159V35.5159V35.5159V35.5159V35.5159V35.5159V35.5159V35.5158V35.5158V35.5158V35.5158V35.5158V35.5158V35.5158V35.5157V35.5157V35.5157V35.5157V35.5157V35.5157V35.5157V35.5156V35.5156V35.5156V35.5156V35.5156V35.5156V35.5155V35.5155V35.5155V35.5155V35.5155V35.5155V35.5155V35.5154V35.5154V35.5154V35.5154V35.5154V35.5153V35.5153V35.5153V35.5153V35.5153V35.5153V35.5152V35.5152V35.5152V35.5152V35.5152V35.5152V35.5151V35.5151V35.5151V35.5151V35.5151V35.515V35.515V35.515V35.515V35.515V35.5149V35.5149V35.5149V35.5149V35.5149V35.5148V35.5148V35.5148V35.5148V35.5148V35.5147V35.5147V35.5147V35.5147V35.5146V35.5146V35.5146V35.5146V35.5146V35.5145V35.5145V35.5145V35.5145V35.5145V35.5144V35.5144V35.5144V35.5144V35.5143V35.5143V35.5143V35.5143V35.5142V35.5142V35.5142V35.5142V35.5141V35.5141V35.5141V35.5141V35.5141V35.514V35.514V35.514V35.514V35.5139V35.5139V35.5139V35.5139V35.5138V35.5138V35.5138V35.5138V35.5137V35.5137V35.5137V35.5137V35.5136V35.5136V35.5136V35.5135V35.5135V35.5135V35.5135V35.5134V35.5134V35.5134V35.5134V35.5133V35.5133V35.5133V35.5133V35.5132V35.5132V35.5132V35.5131V35.5131V35.5131V35.5131V35.513V35.513V35.513V35.5129V35.5129V35.5129V35.5129V35.5128V35.5128V35.5128V35.5127V35.5127V35.5127V35.5127V35.5126V35.5126V35.5126V35.5125V35.5125V35.5125V35.5125V35.5124V35.5124V35.5124V35.5123V35.5123V35.5123V35.5122V35.5122V35.5122V35.5122V35.5121V35.5121V35.5121V35.512V35.512V35.512V35.5119V35.5119V35.5119V35.5118V35.5118V35.5118V35.5118V35.5117V35.5117V35.5117V35.5116V35.5116V35.5116V35.5115V35.5115V35.5115V35.5114V35.5114V35.5114V35.5113V35.5113V35.5113V35.5112V35.5112V35.5112V35.5111V35.5111V35.5111V35.511V35.511V35.511V35.5109V35.5109V35.5109V35.5108V35.5108V35.5108V35.5107V35.5107V35.5107V35.5106V35.5106V35.5106V35.5105V35.5105V35.5105V35.5104V35.5104V35.5104V35.5103V35.5103V35.5103V35.5102V35.5102V35.5102V35.5101V35.5101V35.51V35.51V35.51V35.5099V35.5099V35.5099V35.5098V35.5098V35.5098V35.5097V35.5097V35.5097V35.5096V35.5096V35.5096V35.5095V35.5095V35.5094V35.5094V35.5094V35.5093V35.5093V35.5093V35.5092V35.5092V35.5092V35.5091V35.5091V35.509V35.509V35.509V35.5089V35.5089V35.5089V35.5088V35.5088V35.5088V35.5087V35.5087V35.5086V35.5086V35.5086V35.5085V35.5085V35.5085V35.5084V35.5084V35.5083V35.5083V35.5083V35.5082V35.5082V35.5082V35.5081V35.5081V35.508V35.508V35.508V35.5079V35.5079V35.5079V35.5078V35.5078V35.5077V35.5077V35.5077V35.5076V35.5076V35.5075V35.5075V35.5075V35.5074V35.5074V35.5074V35.5073V35.5073V35.5072V35.5072V35.5072V35.5071V35.5071V35.507V35.507V35.507V35.5069V35.5069V35.5068V35.5068V35.5068V35.5067V35.5067V35.5067V35.5066V35.5066V35.5065V35.5065V35.5065V35.5064V35.5064V35.5063V35.5063V35.5063V35.5062V35.5062V35.5061V35.5061V35.5061V35.506V35.506V35.5059V35.5059V35.5059V35.5058V35.5058V35.5057V35.5057V35.5057V35.5056V35.5056V35.5055V35.5055V35.5055V35.5054V35.5054V35.5053V35.5053V35.5053V35.5052V35.5052V35.5051V35.5051V35.5051V35.505V35.505V35.5049V35.5049V35.5049V35.5048V35.5048V35.5047V35.5047V35.5047V35.5046V35.5046V35.5045V35.5045V35.5045V35.5044V35.5044V35.5043V35.5043V35.5043V35.5042V35.5042V35.5041V35.5041V35.5041V35.504V35.504V35.5039V35.5039V35.5039V35.5038V35.5038V35.5037V35.5037V35.5036V35.5036V35.5036V35.5035V35.5035V35.5034V35.5034V35.5034V35.5033V35.5033V35.5032V35.5032V35.5032V35.5031V35.5031V35.503V35.503V35.503V35.5029V35.5029V35.5028V35.5028V35.5028V35.5027V35.5027V35.5026V35.5026V35.5025V35.5025V35.5025V35.5024V35.5024V35.5023V35.5023V35.5023V35.5022V35.5022V35.5021V35.5021V35.5021V35.502V35.502V35.5019V35.5019V35.5019V35.5018V35.5018V35.5017V35.5017V35.5016V35.5016V35.5016V35.5015V35.5015V35.5014V35.5014V35.5014V35.5013V35.5013V35.5012V35.5012V35.5012V35.5011V35.5011V35.501V35.501V35.501V35.5009V35.5009V35.5008V35.5008V35.5008V35.5007V35.5007V35.5006V35.5006V35.5005V35.5005V35.5005V35.5004V35.5004V35.5003V35.5003V35.5003V35.5002V35.5002V35.5001V35.5001V35.5001V35.5V35.5V35.4999V35.4999V35.4999V35.4998V35.4998V35.4997V35.4997V35.4997V35.4996V35.4996V35.4995V35.4995V35.4994V35.4994V35.4994V35.4993V35.4993V35.4992V35.4992V35.4992V35.4991V35.4991V35.499V35.499V35.499V35.4989V35.4989V35.4988V35.4988V35.4988V35.4987V35.4987V35.4986V35.4986V35.4985V35.4985V35.4985V35.4984V35.4984V35.4983V35.4983V35.4983V35.4982V35.4982V35.4981V35.4981V35.4981V35.498V35.498V35.4979V35.4979V35.4979V35.4978V35.4978V35.4977V35.4977V35.4977V35.4976V35.4976V35.4975V35.4975V35.4974V35.4974V35.4974V35.4973V35.4973V35.4972V35.4972V35.4972V35.4971V35.4971V35.497V35.497V35.497V35.4969V35.4969V35.4968V35.4968V35.4968V35.4967V35.4967V35.4966V35.4966V35.4965V35.4965V35.4965V35.4964V35.4964V35.4963V35.4963V35.4963V35.4962V35.4962V35.4961V35.4961V35.4961V35.496V35.496V35.4959V35.4959V35.4959V35.4958V35.4958V35.4957V35.4957V35.4957V35.4956V35.4956V35.4955V35.4955V35.4954V35.4954V35.4954V35.4953V35.4953V35.4952V35.4952V35.4952V35.4951V35.4951V35.495V35.495V35.495V35.4949V35.4949V35.4948V35.4948V35.4948V35.4947V35.4947V35.4946V35.4946V35.4945V35.4945V35.4945V35.4944V35.4944V35.4943V35.4943V35.4943V35.4942V35.4942V35.4941V35.4941V35.4941V35.494V35.494V35.4939V35.4939V35.4939V35.4938V35.4938V35.4937V35.4937V35.4937V35.4936V35.4936V35.4935V35.4935V35.4934V35.4934V35.4934V35.4933V35.4933V35.4932V35.4932V35.4932V35.4931V35.4931V35.493V35.493V35.493V35.4929V35.4929V35.4928V35.4928V35.4928V35.4927V35.4927V35.4926V35.4926V35.4925V35.4925V35.4925V35.4924V35.4924V35.4923V35.4923V35.4923V35.4922V35.4922V35.4921V35.4921V35.4921V35.492V35.492V35.4919V35.4919V35.4919V35.4918V35.4918V35.4917V35.4917V35.4917V35.4916V35.4916V35.4915V35.4915V35.4914V35.4914V35.4914V35.4913V35.4913V35.4912V35.4912V35.4912V35.4911V35.4911V35.491V35.491V35.491V35.4909V35.4909V35.4908V35.4908V35.4908V35.4907V35.4907V35.4906V35.4906V35.4906V35.4905V35.4905V35.4904V35.4904V35.4903V35.4903V35.4903V35.4902V35.4902V35.4901V35.4901V35.4901V35.49V35.49V35.4899V35.4899V35.4899V35.4898V35.4898V35.4897V35.4897V35.4897V35.4896V35.4896V35.4895V35.4895V35.4894V35.4894V35.4894V35.4893V35.4893V35.4892V35.4892V35.4892V35.4891V35.4891V35.489V35.489V35.489V35.4889V35.4889V35.4888V35.4888V35.4888V35.4887V35.4887V35.4886V35.4886V35.4886V35.4885V35.4885V35.4884V35.4884V35.4883V35.4883V35.4883V35.4882V35.4882V35.4881V35.4881V35.4881V35.488V35.488V35.4879V35.4879V35.4879V35.4878V35.4878V35.4877V35.4877V35.4877V35.4876V35.4876V35.4875V35.4875V35.4874V35.4874V35.4874V35.4873V35.4873V35.4872V35.4872V35.4872V35.4871V35.4871V35.487V35.487V35.487V35.4869V35.4869V35.4868V35.4868V35.4868V35.4867V35.4867V35.4866V35.4866V35.4866V35.4865V35.4865V35.4864V35.4864V35.4863V35.4863V35.4863V35.4862V35.4862V35.4861V35.4861V35.4861V35.486V35.486V35.4859V35.4859V35.4859V35.4858V35.4858V35.4857V35.4857V35.4857V35.4856V35.4856V35.4855V35.4855V35.4855V35.4854V35.4854V35.4853V35.4853V35.4852V35.4852V35.4852V35.4851V35.4851V35.485V35.485V35.485V35.4849V35.4849V35.4848V35.4848V35.4848V35.4847V35.4847V35.4846V35.4846V35.4846V35.4845V35.4845V35.4844V35.4844V35.4843V35.4843V35.4843V35.4842V35.4842V35.4841V35.4841V35.4841V35.484V35.484V35.4839V35.4839V35.4839V35.4838V35.4838V35.4837V35.4837V35.4837V35.4836V35.4836V35.4835V35.4835V35.4835V35.4834V35.4834V35.4833V35.4833V35.4832V35.4832V35.4832V35.4831V35.4831V35.483V35.483V35.483V35.4829V35.4829V35.4828V35.4828V35.4828V35.4827V35.4827V35.4826V35.4826V35.4826V35.4825V35.4825V35.4824V35.4824V35.4823V35.4823V35.4823V35.4822V35.4822V35.4821V35.4821V35.4821V35.482V35.482V35.4819V35.4819V35.4819V35.4818V35.4818V35.4817V35.4817V35.4817V24.5045L34.1695 30.3714L34.1702 30.3717C35.5479 30.8876 37.07 30.8879 38.449 30.3639L38.4492 30.3638Z" fill="#F7E1BE" stroke="#482C0C"/>
<path d="M68.816 32.529C69.3579 31.5331 69.9694 30.2309 70.4905 29.0818C70.8935 28.1834 72.0469 27.9884 72.5402 28.838C73.4088 30.3283 73.9785 32.1042 74.2634 33.2881C74.3537 33.6641 74.2773 34.075 73.9855 34.3327C72.7626 35.426 70.8726 35.1335 69.4066 34.5764C68.6214 34.2769 68.4129 33.2741 68.816 32.5359V32.529Z" fill="#482C0C"/>
<path fill-rule="evenodd" clip-rule="evenodd" d="M71.5815 28.9912C71.4286 29.012 71.2341 29.1304 71.1298 29.3672C70.6087 30.5232 69.9834 31.8394 69.4344 32.8631C69.3163 33.079 69.2885 33.3297 69.3441 33.5387C69.3928 33.7336 69.5109 33.859 69.6637 33.9217C70.3516 34.1793 71.102 34.3674 71.8038 34.3743C72.4986 34.3743 73.0893 34.2072 73.5339 33.8103C73.5826 33.7685 73.6451 33.6501 73.5965 33.4551C73.3185 32.306 72.7696 30.5998 71.9497 29.1931C71.8525 29.019 71.7204 28.9772 71.5815 28.9981V28.9912ZM71.3939 27.6053C72.0609 27.5148 72.7557 27.8003 73.1518 28.4758L72.5542 28.824M71.3939 27.6053C70.7477 27.6958 70.164 28.1276 69.8652 28.7892L71.3939 27.6053ZM73.1448 28.4828C74.062 30.0497 74.6526 31.9021 74.9445 33.1208C75.0765 33.6779 74.9792 34.3743 74.4511 34.8479C73.6729 35.5443 72.7071 35.7671 71.783 35.7602C70.8658 35.7532 69.9417 35.5164 69.1635 35.217C67.8572 34.7225 67.6696 33.1765 68.2046 32.1946C68.7327 31.2196 69.3441 29.9383 69.8583 28.7892" fill="#F7E1BE"/>
<path fill-rule="evenodd" clip-rule="evenodd" d="M70.3376 27.2363C70.6364 26.9926 71.0741 27.0343 71.3173 27.3338C71.5535 27.6263 71.6786 28.058 71.755 28.4132C71.8384 28.8102 71.901 29.2698 71.9357 29.7294C72.0191 30.6556 72.033 31.6584 72.0191 32.3061C72.0191 32.6891 71.6925 32.9955 71.3104 32.9886C70.9282 32.9816 70.6225 32.6613 70.6294 32.2782C70.6364 31.6654 70.6294 30.7113 70.553 29.8478C70.5113 29.416 70.4627 29.0191 70.3932 28.7057C70.3584 28.5455 70.3237 28.4271 70.289 28.3296C70.2542 28.2461 70.2334 28.2113 70.2334 28.2113C69.9902 27.9118 70.0319 27.4731 70.3306 27.2293L70.3376 27.2363Z" fill="#F7E1BE"/>
<path fill-rule="evenodd" clip-rule="evenodd" d="M71.1853 13.7958C71.762 13.7958 72.2276 14.2624 72.2276 14.8404V26.4076C72.2276 26.9856 71.762 27.4522 71.1853 27.4522C70.6086 27.4522 70.1431 26.9856 70.1431 26.4076V14.8404C70.1431 14.2624 70.6086 13.7958 71.1853 13.7958Z" fill="#F7E1BE"/>
<path d="M74.055 26.8184C74.055 28.4062 72.7695 29.6945 71.1853 29.6945C69.6011 29.6945 68.3157 28.4062 68.3157 26.8184C68.3157 25.2306 69.6011 23.9423 71.1853 23.9423C72.7695 23.9423 74.055 25.2306 74.055 26.8184Z" fill="#F7E1BE"/>
<path d="M71.5852 14.7697L71.5843 14.77L38.2192 27.4722C36.992 27.9374 35.6446 27.9373 34.4242 27.4786L0.649648 14.7697C0.649538 14.7697 0.649427 14.7696 0.649317 14.7696C0.446019 14.6923 0.446996 14.4091 0.644454 14.3296C0.644556 14.3296 0.644657 14.3295 0.644759 14.3295L34.2333 0.917889H34.2408L34.3305 0.881823C35.6132 0.366341 37.0426 0.372384 38.3203 0.888449C38.3203 0.888455 38.3204 0.88846 38.3204 0.888466L71.5882 14.3288C71.5884 14.3288 71.5885 14.3289 71.5887 14.3289C71.7892 14.4107 71.781 14.6955 71.5852 14.7697Z" fill="#F7E1BE" stroke="#482C0C"/>
<path fill-rule="evenodd" clip-rule="evenodd" d="M61.8399 16.0381C61.9719 16.4002 61.7843 16.7972 61.423 16.9295L37.6529 25.6206C37.2915 25.7529 36.8955 25.5649 36.7635 25.2027C36.6315 24.8406 36.8191 24.4437 37.1804 24.3114L60.9505 15.6203C61.3118 15.4879 61.7079 15.676 61.8399 16.0381Z" fill="#482C0C"/>
<path fill-rule="evenodd" clip-rule="evenodd" d="M5.94084 14.4225C6.07286 14.0604 6.46892 13.8793 6.83023 14.0116L14.7721 16.9295C15.1335 17.0619 15.3141 17.4588 15.1821 17.8209C15.0501 18.1831 14.654 18.3641 14.2927 18.2318L6.35079 15.3139C5.98948 15.1816 5.80883 14.7846 5.94084 14.4225Z" fill="#482C0C"/>
</g>
<defs>
<clipPath id="clip0_197_297">
<rect width="75" height="42" fill="white"/>
</clipPath>
</defs>
</svg>
