<svg width="42" height="53" viewBox="0 0 42 53" fill="none" xmlns="http://www.w3.org/2000/svg">
<g clip-path="url(#clip0_197_308)">
<path d="M3.65723 7.65005C3.65723 5.44811 5.44258 3.65735 7.64993 3.65735H37.6763C39.8783 3.65735 41.669 5.4427 41.669 7.65005V48.3182C41.669 50.5202 39.8837 52.3109 37.6763 52.3109H7.64993C5.44799 52.3109 3.65723 50.5256 3.65723 48.3182V7.65005Z" fill="#482C0C"/>
<path d="M0.995605 4.98831C0.995605 2.78637 2.78637 0.995605 4.98831 0.995605H35.0147C37.2166 0.995605 39.0074 2.78096 39.0074 4.98831V45.6565C39.0074 47.8584 37.2221 49.6492 35.0147 49.6492H4.98831C2.78637 49.6492 0.995605 47.8638 0.995605 45.6565V4.98831Z" fill="#F7E1BE"/>
<path fill-rule="evenodd" clip-rule="evenodd" d="M4.98817 0H35.0146C37.7683 0 40.0027 2.2344 40.0027 4.98817V45.6564C40.0027 48.4101 37.7683 50.6445 35.0146 50.6445H4.98817C2.2344 50.6445 0 48.4101 0 45.6564V4.98817C0 2.2344 2.2344 0 4.98817 0ZM4.98817 0.99547C2.78623 0.99547 0.99547 2.78623 0.99547 4.98817V45.6564C0.99547 47.8583 2.78082 49.6491 4.98817 49.6491H35.0146C37.2165 49.6491 39.0073 47.8637 39.0073 45.6564V4.98817C39.0073 2.78623 37.2219 0.99547 35.0146 0.99547H4.98817Z" fill="#482C0C"/>
<path d="M5.60498 7.46071C5.60498 6.35703 6.49766 5.46436 7.60133 5.46436H32.9263C34.03 5.46436 34.9227 6.35703 34.9227 7.46071V12.1351C34.9227 13.2388 34.03 14.1314 32.9263 14.1314H7.60133C6.49766 14.1314 5.60498 13.2388 5.60498 12.1351V7.46071Z" fill="#482C0C"/>
<path fill-rule="evenodd" clip-rule="evenodd" d="M7.36329 17.6534H11.6373C12.741 17.6534 13.6337 18.5461 13.6337 19.6498V20.5425C13.6337 21.6461 12.741 22.5388 11.6373 22.5388H7.36329C6.25962 22.5388 5.36694 21.6461 5.36694 20.5425V19.6498C5.36694 18.5461 6.25962 17.6534 7.36329 17.6534ZM7.36329 18.6543C6.81146 18.6543 6.36782 19.1034 6.36782 19.6498V20.5425C6.36782 21.0943 6.81687 21.5379 7.36329 21.5379H11.6373C12.1892 21.5379 12.6328 21.0889 12.6328 20.5425V19.6498C12.6328 19.098 12.1837 18.6543 11.6373 18.6543H7.36329Z" fill="#482C0C"/>
<path fill-rule="evenodd" clip-rule="evenodd" d="M7.36329 24.6866H11.6373C12.741 24.6866 13.6337 25.5793 13.6337 26.683V27.5757C13.6337 28.6793 12.741 29.572 11.6373 29.572H7.36329C6.25962 29.572 5.36694 28.6793 5.36694 27.5757V26.683C5.36694 25.5793 6.25962 24.6866 7.36329 24.6866ZM7.36329 25.6821C6.81146 25.6821 6.36782 26.1312 6.36782 26.6776V27.5703C6.36782 28.1221 6.81687 28.5657 7.36329 28.5657H11.6373C12.1892 28.5657 12.6328 28.1167 12.6328 27.5703V26.6776C12.6328 26.1257 12.1837 25.6821 11.6373 25.6821H7.36329Z" fill="#482C0C"/>
<path fill-rule="evenodd" clip-rule="evenodd" d="M7.36329 32.0985H11.6373C12.741 32.0985 13.6337 32.9912 13.6337 34.0949V34.9875C13.6337 36.0912 12.741 36.9839 11.6373 36.9839H7.36329C6.25962 36.9839 5.36694 36.0912 5.36694 34.9875V34.0949C5.36694 32.9912 6.25962 32.0985 7.36329 32.0985ZM7.36329 33.094C6.81146 33.094 6.36782 33.543 6.36782 34.0894V34.9821C6.36782 35.534 6.81687 35.9776 7.36329 35.9776H11.6373C12.1892 35.9776 12.6328 35.5286 12.6328 34.9821V34.0894C12.6328 33.5376 12.1837 33.094 11.6373 33.094H7.36329Z" fill="#482C0C"/>
<path fill-rule="evenodd" clip-rule="evenodd" d="M7.36329 39.5105H11.6373C12.741 39.5105 13.6337 40.4032 13.6337 41.5068V42.3995C13.6337 43.5032 12.741 44.3959 11.6373 44.3959H7.36329C6.25962 44.3959 5.36694 43.5032 5.36694 42.3995V41.5068C5.36694 40.4032 6.25962 39.5105 7.36329 39.5105ZM7.36329 40.506C6.81146 40.506 6.36782 40.955 6.36782 41.5014V42.3941C6.36782 42.946 6.81687 43.3896 7.36329 43.3896H11.6373C12.1892 43.3896 12.6328 42.9405 12.6328 42.3941V41.5014C12.6328 40.9496 12.1837 40.506 11.6373 40.506H7.36329Z" fill="#482C0C"/>
<path fill-rule="evenodd" clip-rule="evenodd" d="M18.3838 17.6534H22.6578C23.7615 17.6534 24.6542 18.5461 24.6542 19.6498V20.5425C24.6542 21.6461 23.7615 22.5388 22.6578 22.5388H18.3838C17.2801 22.5388 16.3875 21.6461 16.3875 20.5425V19.6498C16.3875 18.5461 17.2801 17.6534 18.3838 17.6534ZM18.3838 18.6543C17.832 18.6543 17.3883 19.1034 17.3883 19.6498V20.5425C17.3883 21.0943 17.8374 21.5379 18.3838 21.5379H22.6578C23.2097 21.5379 23.6533 21.0889 23.6533 20.5425V19.6498C23.6533 19.098 23.2043 18.6543 22.6578 18.6543H18.3838Z" fill="#482C0C"/>
<path fill-rule="evenodd" clip-rule="evenodd" d="M18.3838 24.6866H22.6578C23.7615 24.6866 24.6542 25.5793 24.6542 26.683V27.5757C24.6542 28.6793 23.7615 29.572 22.6578 29.572H18.3838C17.2801 29.572 16.3875 28.6793 16.3875 27.5757V26.683C16.3875 25.5793 17.2801 24.6866 18.3838 24.6866ZM18.3838 25.6821C17.832 25.6821 17.3883 26.1312 17.3883 26.6776V27.5703C17.3883 28.1221 17.8374 28.5657 18.3838 28.5657H22.6578C23.2097 28.5657 23.6533 28.1167 23.6533 27.5703V26.6776C23.6533 26.1257 23.2043 25.6821 22.6578 25.6821H18.3838Z" fill="#482C0C"/>
<path fill-rule="evenodd" clip-rule="evenodd" d="M18.3838 32.0985H22.6578C23.7615 32.0985 24.6542 32.9912 24.6542 34.0949V34.9875C24.6542 36.0912 23.7615 36.9839 22.6578 36.9839H18.3838C17.2801 36.9839 16.3875 36.0912 16.3875 34.9875V34.0949C16.3875 32.9912 17.2801 32.0985 18.3838 32.0985ZM18.3838 33.094C17.832 33.094 17.3883 33.543 17.3883 34.0894V34.9821C17.3883 35.534 17.8374 35.9776 18.3838 35.9776H22.6578C23.2097 35.9776 23.6533 35.5286 23.6533 34.9821V34.0894C23.6533 33.5376 23.2043 33.094 22.6578 33.094H18.3838Z" fill="#482C0C"/>
<path fill-rule="evenodd" clip-rule="evenodd" d="M18.3838 39.5105H22.6578C23.7615 39.5105 24.6542 40.4032 24.6542 41.5068V42.3995C24.6542 43.5032 23.7615 44.3959 22.6578 44.3959H18.3838C17.2801 44.3959 16.3875 43.5032 16.3875 42.3995V41.5068C16.3875 40.4032 17.2801 39.5105 18.3838 39.5105ZM18.3838 40.506C17.832 40.506 17.3883 40.955 17.3883 41.5014V42.3941C17.3883 42.946 17.8374 43.3896 18.3838 43.3896H22.6578C23.2097 43.3896 23.6533 42.9405 23.6533 42.3941V41.5014C23.6533 40.9496 23.2043 40.506 22.6578 40.506H18.3838Z" fill="#482C0C"/>
<path fill-rule="evenodd" clip-rule="evenodd" d="M29.1228 17.6534H33.3968C34.5005 17.6534 35.3932 18.5461 35.3932 19.6498V20.5425C35.3932 21.6461 34.5005 22.5388 33.3968 22.5388H29.1228C28.0191 22.5388 27.1265 21.6461 27.1265 20.5425V19.6498C27.1265 18.5461 28.0191 17.6534 29.1228 17.6534ZM29.1228 18.6543C28.571 18.6543 28.1273 19.1034 28.1273 19.6498V20.5425C28.1273 21.0943 28.5764 21.5379 29.1228 21.5379H33.3968C33.9487 21.5379 34.3923 21.0889 34.3923 20.5425V19.6498C34.3923 19.098 33.9433 18.6543 33.3968 18.6543H29.1228Z" fill="#482C0C"/>
<path fill-rule="evenodd" clip-rule="evenodd" d="M28.5549 24.6866H32.829C33.9326 24.6866 34.8253 25.5793 34.8253 26.683V42.3995C34.8253 43.5032 33.9326 44.3959 32.829 44.3959H28.5549C27.4513 44.3959 26.5586 43.5032 26.5586 42.3995V26.683C26.5586 25.5793 27.4513 24.6866 28.5549 24.6866ZM28.5549 25.6821C28.0031 25.6821 27.5595 26.1312 27.5595 26.6776V42.3941C27.5595 42.9459 28.0085 43.3896 28.5549 43.3896H32.829C33.3808 43.3896 33.8244 42.9405 33.8244 42.3941V26.6776C33.8244 26.1257 33.3754 25.6821 32.829 25.6821H28.5549Z" fill="#482C0C"/>
<path fill-rule="evenodd" clip-rule="evenodd" d="M29.1445 33.516C29.1445 33.2401 29.3663 33.0183 29.6423 33.0183H31.7306C32.0065 33.0183 32.2283 33.2401 32.2283 33.516C32.2283 33.792 32.0065 34.0138 31.7306 34.0138H29.6423C29.3663 34.0138 29.1445 33.792 29.1445 33.516Z" fill="#482C0C"/>
<path fill-rule="evenodd" clip-rule="evenodd" d="M29.1445 35.3663C29.1445 35.0904 29.3663 34.8685 29.6423 34.8685H31.7306C32.0065 34.8685 32.2283 35.0904 32.2283 35.3663C32.2283 35.6422 32.0065 35.864 31.7306 35.864H29.6423C29.3663 35.864 29.1445 35.6422 29.1445 35.3663Z" fill="#482C0C"/>
<path fill-rule="evenodd" clip-rule="evenodd" d="M29.1445 8.44538C29.1445 7.67173 29.7721 7.04956 30.5404 7.04956H30.9786C31.7522 7.04956 32.3744 7.67714 32.3744 8.44538V10.9016C32.3744 11.6752 31.7468 12.2974 30.9786 12.2974H30.5404C29.7667 12.2974 29.1445 11.6698 29.1445 10.9016V8.44538ZM30.5458 8.05044C30.3239 8.05044 30.1454 8.22898 30.1454 8.45079V10.907C30.1454 11.1288 30.3239 11.3074 30.5458 11.3074H30.984C31.2058 11.3074 31.3843 11.1288 31.3843 10.907V8.45079C31.3843 8.22898 31.2058 8.05044 30.984 8.05044H30.5458Z" fill="#F7E1BE"/>
</g>
<defs>
<clipPath id="clip0_197_308">
<rect width="41.6637" height="52.3109" fill="white"/>
</clipPath>
</defs>
</svg>
