<svg width="69" height="64" viewBox="0 0 69 64" fill="none" xmlns="http://www.w3.org/2000/svg">
<g clip-path="url(#clip0_197_283)">
<path d="M32.5193 2.71111C32.5193 1.96551 33.1351 1.35547 33.8877 1.35547H35.0302C35.7828 1.35547 36.3986 1.96551 36.3986 2.71111V14.0172C36.3986 14.7628 35.7828 15.3728 35.0302 15.3728H33.8877C33.1351 15.3728 32.5193 14.7628 32.5193 14.0172V2.71111Z" fill="#F7E1BE"/>
<path fill-rule="evenodd" clip-rule="evenodd" d="M33.8879 -0.000244141H35.0305C36.5425 -0.000244141 37.7672 1.21306 37.7672 2.71105V14.0171C37.7672 15.5151 36.5425 16.7284 35.0305 16.7284H33.8879C32.3758 16.7284 31.1511 15.5151 31.1511 14.0171V2.71105C31.1511 1.21306 32.3758 -0.000244141 33.8879 -0.000244141ZM33.8879 1.3554C33.1353 1.3554 32.5195 1.96544 32.5195 2.71105V14.0171C32.5195 14.7627 33.1353 15.3728 33.8879 15.3728H35.0305C35.7831 15.3728 36.3988 14.7627 36.3988 14.0171V2.71105C36.3988 1.96544 35.7831 1.3554 35.0305 1.3554H33.8879Z" fill="#482C0C"/>
<path d="M43.4593 34.2503L50.0343 61.3835C50.349 62.7188 49.3227 63.9931 47.9407 63.9931H47.6465C46.7297 63.9931 45.9155 63.4237 45.6144 62.5697L35.9811 35.4364C35.4885 34.0537 36.5285 32.6031 38.0132 32.6031H41.3657C42.3646 32.6031 43.2335 33.2878 43.4593 34.2503Z" fill="#482C0C"/>
<path d="M23.823 34.2503L17.248 61.3835C16.9333 62.7188 17.9596 63.9931 19.3416 63.9931H19.6358C20.5526 63.9931 21.3668 63.4237 21.6679 62.5697L31.3012 35.4364C31.7938 34.0537 30.7538 32.6031 29.2691 32.6031H25.9166C24.9177 32.6031 24.0488 33.2878 23.823 34.2503Z" fill="#482C0C"/>
<path d="M30.8225 33.4978L31.7393 60.3057C31.7872 61.4037 32.704 62.2713 33.8192 62.2713C34.9345 62.2713 35.8239 61.4308 35.8923 60.3463L37.5754 33.552C37.678 31.9998 36.4397 30.6848 34.866 30.6848H33.5387C31.9925 30.6848 30.7609 31.9659 30.8294 33.491L30.8225 33.4978Z" fill="#482C0C"/>
<path d="M3.35938 8.51336C3.35938 7.76776 3.97514 7.15771 4.72774 7.15771H62.8287C63.5813 7.15771 64.1971 7.76776 64.1971 8.51336V43.184C64.1971 43.9296 63.5813 44.5396 62.8287 44.5396H4.72774C3.97514 44.5396 3.35938 43.9296 3.35938 43.184V8.51336Z" fill="#F7E1BE"/>
<path fill-rule="evenodd" clip-rule="evenodd" d="M4.7277 5.802H62.8286C64.3407 5.802 65.5654 7.0153 65.5654 8.51329V43.1839C65.5654 44.6819 64.3407 45.8952 62.8286 45.8952H4.7277C3.21566 45.8952 1.99097 44.6819 1.99097 43.1839V8.51329C1.99097 7.0153 3.21566 5.802 4.7277 5.802ZM4.7277 7.15765C3.9751 7.15765 3.35934 7.76769 3.35934 8.51329V43.1839C3.35934 43.9295 3.9751 44.5396 4.7277 44.5396H62.8286C63.5812 44.5396 64.197 43.9295 64.197 43.1839V8.51329C64.197 7.76769 63.5812 7.15765 62.8286 7.15765H4.7277Z" fill="#482C0C"/>
<path d="M10.5093 42.5671C10.5093 41.8215 11.125 41.2114 11.8776 41.2114H17.6316C18.3842 41.2114 19 41.8215 19 42.5671V43.1771C19 43.9227 18.3842 44.5328 17.6316 44.5328H11.8776C11.125 44.5328 10.5093 43.9227 10.5093 43.1771V42.5671Z" fill="#482C0C"/>
<path d="M1.36841 5.85629C1.36841 5.13779 1.95681 4.56165 2.6752 4.56165H66.318C67.0433 4.56165 67.6248 5.14457 67.6248 5.85629C67.6248 6.568 67.0364 7.15093 66.318 7.15093H2.6752C1.94997 7.15093 1.36841 6.568 1.36841 5.85629Z" fill="#F7E1BE"/>
<path fill-rule="evenodd" clip-rule="evenodd" d="M2.67516 3.20593H66.318C67.7958 3.20593 68.9932 4.39212 68.9932 5.85622C68.9932 7.32032 67.7958 8.5065 66.318 8.5065H2.67516C1.19732 8.5065 0 7.32032 0 5.85622C0 4.39212 1.19732 3.20593 2.67516 3.20593ZM2.67516 4.56158C1.94993 4.56158 1.36837 5.14451 1.36837 5.85622C1.36837 6.56793 1.95677 7.15086 2.67516 7.15086H66.318C67.0432 7.15086 67.6248 6.56793 67.6248 5.85622C67.6248 5.14451 67.0364 4.56158 66.318 4.56158H2.67516Z" fill="#482C0C"/>
<path d="M1.36841 45.8342C1.36841 45.1157 1.95681 44.5396 2.6752 44.5396H66.318C67.0433 44.5396 67.6248 45.1225 67.6248 45.8342C67.6248 46.5459 67.0364 47.1288 66.318 47.1288H2.6752C1.94997 47.1288 1.36841 46.5459 1.36841 45.8342Z" fill="#F7E1BE"/>
<path fill-rule="evenodd" clip-rule="evenodd" d="M2.67516 43.1771H66.318C67.7958 43.1771 68.9932 44.3633 68.9932 45.8274C68.9932 47.2915 67.7958 48.4777 66.318 48.4777H2.67516C1.19732 48.4777 0 47.2915 0 45.8274C0 44.3633 1.19732 43.1771 2.67516 43.1771ZM2.67516 44.5328C1.94993 44.5328 1.36837 45.1157 1.36837 45.8274C1.36837 46.5391 1.95677 47.122 2.67516 47.122H66.318C67.0432 47.122 67.6248 46.5391 67.6248 45.8274C67.6248 45.1157 67.0364 44.5328 66.318 44.5328H2.67516Z" fill="#482C0C"/>
</g>
<defs>
<clipPath id="clip0_197_283">
<rect width="69" height="64" fill="white"/>
</clipPath>
</defs>
</svg>
